solid OBJECT
  facet normal 0 0 -1
    outer loop
      vertex 0 8 0
      vertex 10 8 0
      vertex 10 0 0
    endloop
  endfacet
  facet normal 0 0 -1
    outer loop
      vertex 0 8 0
      vertex 10 0 0
      vertex 0 0 0
    endloop
  endfacet
  facet normal -0 0 1
    outer loop
      vertex 0 0 5
      vertex 10 0 5
      vertex 10 8 5
    endloop
  endfacet
  facet normal -0 0 1
    outer loop
      vertex 0 0 5
      vertex 10 8 5
      vertex 0 8 5
    endloop
  endfacet
  facet normal 0 -1 -0
    outer loop
      vertex 0 0 0
      vertex 10 0 0
      vertex 10 0 5
    endloop
  endfacet
  facet normal 0 -1 -0
    outer loop
      vertex 0 0 0
      vertex 10 0 5
      vertex 0 0 5
    endloop
  endfacet
  facet normal 1 -0 0
    outer loop
      vertex 10 0 0
      vertex 10 8 0
      vertex 10 8 5
    endloop
  endfacet
  facet normal 1 -0 0
    outer loop
      vertex 10 0 0
      vertex 10 8 5
      vertex 10 0 5
    endloop
  endfacet
  facet normal 0 1 0
    outer loop
      vertex 10 8 0
      vertex 0 8 0
      vertex 0 8 5
    endloop
  endfacet
  facet normal 0 1 0
    outer loop
      vertex 10 8 0
      vertex 0 8 5
      vertex 10 8 5
    endloop
  endfacet
  facet normal -1 -0 -0
    outer loop
      vertex 0 8 0
      vertex 0 0 0
      vertex 0 0 5
    endloop
  endfacet
  facet normal -1 -0 -0
    outer loop
      vertex 0 8 0
      vertex 0 0 5
      vertex 0 8 5
    endloop
  endfacet
endsolid OBJECT
