ISO-10303-21;
HEADER;
/* Generated by software containing ST-Developer
 * from STEP Tools, Inc. (www.steptools.com) 
 */
/* OPTION: using custom schema-name function */

FILE_DESCRIPTION(
/* description */ (''),
/* implementation_level */ '2;1');

FILE_NAME(
/* name */ 'io1-ug-214PlusLayers',
/* time_stamp */ '2021-11-30T16:23:04-08:00',
/* author */ (''),
/* organization */ (''),
/* preprocessor_version */ 'ST-DEVELOPER v19',
/* originating_system */ 'Rhino 8.0',
/* authorisation */ '');

FILE_SCHEMA (('AUTOMOTIVE_DESIGN'));
ENDSEC;

DATA;
#10=SHAPE_REPRESENTATION_RELATIONSHIP('','',#736,#149);
#11=FACE_BOUND('',#249,.T.);
#12=FACE_BOUND('',#252,.T.);
#13=FACE_BOUND('',#253,.T.);
#14=FACE_BOUND('',#254,.T.);
#15=FACE_BOUND('',#255,.T.);
#16=FACE_BOUND('',#256,.T.);
#17=FACE_BOUND('',#257,.T.);
#18=FACE_BOUND('',#258,.T.);
#19=FACE_BOUND('',#261,.T.);
#20=FACE_BOUND('',#262,.T.);
#21=FACE_BOUND('',#263,.T.);
#22=FACE_BOUND('',#264,.T.);
#23=FACE_BOUND('',#265,.T.);
#24=FACE_BOUND('',#266,.T.);
#25=FACE_BOUND('',#267,.T.);
#26=FACE_BOUND('',#270,.T.);
#27=FACE_BOUND('',#273,.T.);
#28=(
BOUNDED_CURVE()
B_SPLINE_CURVE(2,(#995,#996,#997,#998,#999),.UNSPECIFIED.,.F.,.F.)
B_SPLINE_CURVE_WITH_KNOTS((3,2,3),(0.,47.1238898038469,94.2477796076938),
 .UNSPECIFIED.)
CURVE()
GEOMETRIC_REPRESENTATION_ITEM()
RATIONAL_B_SPLINE_CURVE((1.,0.707106781186548,1.,0.707106781186548,1.))
REPRESENTATION_ITEM('')
);
#29=(
BOUNDED_CURVE()
B_SPLINE_CURVE(2,(#1000,#1001,#1002,#1003,#1004),.UNSPECIFIED.,.F.,.F.)
B_SPLINE_CURVE_WITH_KNOTS((3,2,3),(0.,48.6946861306418,97.3893722612836),
 .UNSPECIFIED.)
CURVE()
GEOMETRIC_REPRESENTATION_ITEM()
RATIONAL_B_SPLINE_CURVE((1.,0.707106781186548,1.,0.707106781186548,1.))
REPRESENTATION_ITEM('')
);
#30=(
BOUNDED_CURVE()
B_SPLINE_CURVE(2,(#1007,#1008,#1009,#1010,#1011),.UNSPECIFIED.,.F.,.F.)
B_SPLINE_CURVE_WITH_KNOTS((3,2,3),(-113.097335529233,-84.8230016469244,
-56.5486677646163),.UNSPECIFIED.)
CURVE()
GEOMETRIC_REPRESENTATION_ITEM()
RATIONAL_B_SPLINE_CURVE((1.,0.707106781186548,1.,0.707106781186548,1.))
REPRESENTATION_ITEM('')
);
#31=(
BOUNDED_CURVE()
B_SPLINE_CURVE(2,(#1012,#1013,#1014,#1015,#1016),.UNSPECIFIED.,.F.,.F.)
B_SPLINE_CURVE_WITH_KNOTS((3,2,3),(-113.097335529233,-84.8230016469244,
-56.5486677646163),.UNSPECIFIED.)
CURVE()
GEOMETRIC_REPRESENTATION_ITEM()
RATIONAL_B_SPLINE_CURVE((1.,0.707106781186548,1.,0.707106781186548,1.))
REPRESENTATION_ITEM('')
);
#32=(
BOUNDED_CURVE()
B_SPLINE_CURVE(2,(#1019,#1020,#1021,#1022,#1023),.UNSPECIFIED.,.F.,.F.)
B_SPLINE_CURVE_WITH_KNOTS((3,2,3),(0.,69.1150383789754,138.230076757951),
 .UNSPECIFIED.)
CURVE()
GEOMETRIC_REPRESENTATION_ITEM()
RATIONAL_B_SPLINE_CURVE((1.,0.707106781186548,1.,0.707106781186548,1.))
REPRESENTATION_ITEM('')
);
#33=(
BOUNDED_CURVE()
B_SPLINE_CURVE(2,(#1024,#1025,#1026,#1027,#1028),.UNSPECIFIED.,.F.,.F.)
B_SPLINE_CURVE_WITH_KNOTS((3,2,3),(-276.460153515902,-207.345115136926,
-138.230076757951),.UNSPECIFIED.)
CURVE()
GEOMETRIC_REPRESENTATION_ITEM()
RATIONAL_B_SPLINE_CURVE((1.,0.707106781186548,1.,0.707106781186548,1.))
REPRESENTATION_ITEM('')
);
#34=(
BOUNDED_CURVE()
B_SPLINE_CURVE(2,(#1031,#1032,#1033,#1034,#1035),.UNSPECIFIED.,.F.,.F.)
B_SPLINE_CURVE_WITH_KNOTS((3,2,3),(0.,48.6946861306418,97.3893722612836),
 .UNSPECIFIED.)
CURVE()
GEOMETRIC_REPRESENTATION_ITEM()
RATIONAL_B_SPLINE_CURVE((1.,0.707106781186548,1.,0.707106781186548,1.))
REPRESENTATION_ITEM('')
);
#35=(
BOUNDED_CURVE()
B_SPLINE_CURVE(2,(#1036,#1037,#1038,#1039,#1040),.UNSPECIFIED.,.F.,.F.)
B_SPLINE_CURVE_WITH_KNOTS((3,2,3),(-194.778744522567,-146.084058391925,
-97.3893722612836),.UNSPECIFIED.)
CURVE()
GEOMETRIC_REPRESENTATION_ITEM()
RATIONAL_B_SPLINE_CURVE((1.,0.707106781186548,1.,0.707106781186548,1.))
REPRESENTATION_ITEM('')
);
#36=(
BOUNDED_CURVE()
B_SPLINE_CURVE(2,(#1043,#1044,#1045,#1046,#1047),.UNSPECIFIED.,.F.,.F.)
B_SPLINE_CURVE_WITH_KNOTS((3,2,3),(0.,45.553093477052,91.106186954104),
 .UNSPECIFIED.)
CURVE()
GEOMETRIC_REPRESENTATION_ITEM()
RATIONAL_B_SPLINE_CURVE((1.,0.707106781186548,1.,0.707106781186548,1.))
REPRESENTATION_ITEM('')
);
#37=(
BOUNDED_CURVE()
B_SPLINE_CURVE(2,(#1048,#1049,#1050,#1051,#1052),.UNSPECIFIED.,.F.,.F.)
B_SPLINE_CURVE_WITH_KNOTS((3,2,3),(-182.212373908208,-136.659280431156,
-91.106186954104),.UNSPECIFIED.)
CURVE()
GEOMETRIC_REPRESENTATION_ITEM()
RATIONAL_B_SPLINE_CURVE((1.,0.707106781186548,1.,0.707106781186548,1.))
REPRESENTATION_ITEM('')
);
#38=(
BOUNDED_CURVE()
B_SPLINE_CURVE(2,(#1055,#1056,#1057,#1058,#1059),.UNSPECIFIED.,.F.,.F.)
B_SPLINE_CURVE_WITH_KNOTS((3,2,3),(-194.778744522567,-146.084058391925,
-97.3893722612836),.UNSPECIFIED.)
CURVE()
GEOMETRIC_REPRESENTATION_ITEM()
RATIONAL_B_SPLINE_CURVE((1.,0.707106781186548,1.,0.707106781186548,1.))
REPRESENTATION_ITEM('')
);
#39=(
BOUNDED_CURVE()
B_SPLINE_CURVE(2,(#1062,#1063,#1064,#1065,#1066),.UNSPECIFIED.,.F.,.F.)
B_SPLINE_CURVE_WITH_KNOTS((3,2,3),(-21.9911485751286,-16.4933614313464,
-10.9955742875643),.UNSPECIFIED.)
CURVE()
GEOMETRIC_REPRESENTATION_ITEM()
RATIONAL_B_SPLINE_CURVE((1.,0.707106781186548,1.,0.707106781186548,1.))
REPRESENTATION_ITEM('')
);
#40=(
BOUNDED_CURVE()
B_SPLINE_CURVE(2,(#1067,#1068,#1069,#1070,#1071),.UNSPECIFIED.,.F.,.F.)
B_SPLINE_CURVE_WITH_KNOTS((3,2,3),(-21.9911485751286,-16.4933614313464,
-10.9955742875643),.UNSPECIFIED.)
CURVE()
GEOMETRIC_REPRESENTATION_ITEM()
RATIONAL_B_SPLINE_CURVE((1.,0.707106781186548,1.,0.707106781186548,1.))
REPRESENTATION_ITEM('')
);
#41=(
BOUNDED_CURVE()
B_SPLINE_CURVE(2,(#1074,#1075,#1076,#1077,#1078),.UNSPECIFIED.,.F.,.F.)
B_SPLINE_CURVE_WITH_KNOTS((3,2,3),(-21.9911485751286,-16.4933614313464,
-10.9955742875643),.UNSPECIFIED.)
CURVE()
GEOMETRIC_REPRESENTATION_ITEM()
RATIONAL_B_SPLINE_CURVE((1.,0.707106781186547,1.,0.707106781186547,1.))
REPRESENTATION_ITEM('')
);
#42=(
BOUNDED_CURVE()
B_SPLINE_CURVE(2,(#1079,#1080,#1081,#1082,#1083),.UNSPECIFIED.,.F.,.F.)
B_SPLINE_CURVE_WITH_KNOTS((3,2,3),(-21.9911485751286,-16.4933614313464,
-10.9955742875642),.UNSPECIFIED.)
CURVE()
GEOMETRIC_REPRESENTATION_ITEM()
RATIONAL_B_SPLINE_CURVE((1.,0.707106781186546,1.,0.707106781186546,1.))
REPRESENTATION_ITEM('')
);
#43=(
BOUNDED_CURVE()
B_SPLINE_CURVE(2,(#1086,#1087,#1088),.UNSPECIFIED.,.F.,.F.)
B_SPLINE_CURVE_WITH_KNOTS((3,3),(-3.66519142918809,0.),.UNSPECIFIED.)
CURVE()
GEOMETRIC_REPRESENTATION_ITEM()
RATIONAL_B_SPLINE_CURVE((1.,0.866025403784438,1.))
REPRESENTATION_ITEM('')
);
#44=(
BOUNDED_CURVE()
B_SPLINE_CURVE(2,(#1089,#1090,#1091,#1092,#1093),.UNSPECIFIED.,.F.,.F.)
B_SPLINE_CURVE_WITH_KNOTS((3,2,3),(-21.9911485751286,-16.4933614313464,
-10.9955742875643),.UNSPECIFIED.)
CURVE()
GEOMETRIC_REPRESENTATION_ITEM()
RATIONAL_B_SPLINE_CURVE((1.,0.707106781186548,1.,0.707106781186548,1.))
REPRESENTATION_ITEM('')
);
#45=(
BOUNDED_CURVE()
B_SPLINE_CURVE(2,(#1094,#1095,#1096,#1097,#1098),.UNSPECIFIED.,.F.,.F.)
B_SPLINE_CURVE_WITH_KNOTS((3,2,3),(-21.9911485751286,-16.4933614313464,
-10.9955742875643),.UNSPECIFIED.)
CURVE()
GEOMETRIC_REPRESENTATION_ITEM()
RATIONAL_B_SPLINE_CURVE((1.,0.707106781186549,1.,0.707106781186549,1.))
REPRESENTATION_ITEM('')
);
#46=(
BOUNDED_CURVE()
B_SPLINE_CURVE(2,(#1101,#1102,#1103,#1104,#1105),.UNSPECIFIED.,.F.,.F.)
B_SPLINE_CURVE_WITH_KNOTS((3,2,3),(-7.33038285837619,-3.66519142918809,
0.),.UNSPECIFIED.)
CURVE()
GEOMETRIC_REPRESENTATION_ITEM()
RATIONAL_B_SPLINE_CURVE((1.,0.866025403784439,1.,0.866025403784439,1.))
REPRESENTATION_ITEM('')
);
#47=(
BOUNDED_CURVE()
B_SPLINE_CURVE(2,(#1106,#1107,#1108,#1109,#1110),.UNSPECIFIED.,.F.,.F.)
B_SPLINE_CURVE_WITH_KNOTS((3,2,3),(-21.9911485751286,-16.4933614313464,
-10.9955742875643),.UNSPECIFIED.)
CURVE()
GEOMETRIC_REPRESENTATION_ITEM()
RATIONAL_B_SPLINE_CURVE((1.,0.707106781186548,1.,0.707106781186548,1.))
REPRESENTATION_ITEM('')
);
#48=(
BOUNDED_CURVE()
B_SPLINE_CURVE(2,(#1111,#1112,#1113,#1114,#1115),.UNSPECIFIED.,.F.,.F.)
B_SPLINE_CURVE_WITH_KNOTS((3,2,3),(-21.9911485751286,-16.4933614313464,
-10.9955742875643),.UNSPECIFIED.)
CURVE()
GEOMETRIC_REPRESENTATION_ITEM()
RATIONAL_B_SPLINE_CURVE((1.,0.707106781186548,1.,0.707106781186548,1.))
REPRESENTATION_ITEM('')
);
#49=(
BOUNDED_CURVE()
B_SPLINE_CURVE(2,(#1118,#1119,#1120,#1121,#1122),.UNSPECIFIED.,.F.,.F.)
B_SPLINE_CURVE_WITH_KNOTS((3,2,3),(-10.9955742875643,-5.49778714378214,
0.),.UNSPECIFIED.)
CURVE()
GEOMETRIC_REPRESENTATION_ITEM()
RATIONAL_B_SPLINE_CURVE((1.,0.707106781186548,1.,0.707106781186548,1.))
REPRESENTATION_ITEM('')
);
#50=(
BOUNDED_CURVE()
B_SPLINE_CURVE(2,(#1123,#1124,#1125,#1126,#1127),.UNSPECIFIED.,.F.,.F.)
B_SPLINE_CURVE_WITH_KNOTS((3,2,3),(-21.9911485751286,-18.3259571459405,
-14.6607657167524),.UNSPECIFIED.)
CURVE()
GEOMETRIC_REPRESENTATION_ITEM()
RATIONAL_B_SPLINE_CURVE((1.,0.866025403784439,1.,0.866025403784439,1.))
REPRESENTATION_ITEM('')
);
#51=(
BOUNDED_CURVE()
B_SPLINE_CURVE(2,(#1128,#1129,#1130,#1131,#1132),.UNSPECIFIED.,.F.,.F.)
B_SPLINE_CURVE_WITH_KNOTS((3,2,3),(-21.9911485751286,-16.4933614313464,
-10.9955742875642),.UNSPECIFIED.)
CURVE()
GEOMETRIC_REPRESENTATION_ITEM()
RATIONAL_B_SPLINE_CURVE((1.,0.707106781186546,1.,0.707106781186546,1.))
REPRESENTATION_ITEM('')
);
#52=(
BOUNDED_CURVE()
B_SPLINE_CURVE(2,(#1135,#1136,#1137),.UNSPECIFIED.,.F.,.F.)
B_SPLINE_CURVE_WITH_KNOTS((3,3),(-14.6607657167524,-10.9955742875643),
 .UNSPECIFIED.)
CURVE()
GEOMETRIC_REPRESENTATION_ITEM()
RATIONAL_B_SPLINE_CURVE((1.,0.866025403784438,1.))
REPRESENTATION_ITEM('')
);
#53=(
BOUNDED_CURVE()
B_SPLINE_CURVE(2,(#1138,#1139,#1140),.UNSPECIFIED.,.F.,.F.)
B_SPLINE_CURVE_WITH_KNOTS((3,3),(-21.9911485751286,-18.3259571459405),
 .UNSPECIFIED.)
CURVE()
GEOMETRIC_REPRESENTATION_ITEM()
RATIONAL_B_SPLINE_CURVE((1.,0.866025403784438,1.))
REPRESENTATION_ITEM('')
);
#54=(
BOUNDED_CURVE()
B_SPLINE_CURVE(2,(#1141,#1142,#1143,#1144,#1145),.UNSPECIFIED.,.F.,.F.)
B_SPLINE_CURVE_WITH_KNOTS((3,2,3),(-21.9911485751286,-16.4933614313464,
-10.9955742875643),.UNSPECIFIED.)
CURVE()
GEOMETRIC_REPRESENTATION_ITEM()
RATIONAL_B_SPLINE_CURVE((1.,0.707106781186549,1.,0.707106781186549,1.))
REPRESENTATION_ITEM('')
);
#55=(
BOUNDED_CURVE()
B_SPLINE_CURVE(2,(#1148,#1149,#1150,#1151,#1152),.UNSPECIFIED.,.F.,.F.)
B_SPLINE_CURVE_WITH_KNOTS((3,2,3),(-18.3259571459405,-14.6607657167524,
-10.9955742875643),.UNSPECIFIED.)
CURVE()
GEOMETRIC_REPRESENTATION_ITEM()
RATIONAL_B_SPLINE_CURVE((1.,0.866025403784439,1.,0.866025403784439,1.))
REPRESENTATION_ITEM('')
);
#56=(
BOUNDED_CURVE()
B_SPLINE_CURVE(2,(#1155,#1156,#1157,#1158,#1159),.UNSPECIFIED.,.F.,.F.)
B_SPLINE_CURVE_WITH_KNOTS((3,2,3),(94.2477796076938,141.371669411541,188.495559215388),
 .UNSPECIFIED.)
CURVE()
GEOMETRIC_REPRESENTATION_ITEM()
RATIONAL_B_SPLINE_CURVE((1.,0.707106781186548,1.,0.707106781186548,1.))
REPRESENTATION_ITEM('')
);
#57=(
BOUNDED_CURVE()
B_SPLINE_CURVE(2,(#1160,#1161,#1162,#1163,#1164),.UNSPECIFIED.,.F.,.F.)
B_SPLINE_CURVE_WITH_KNOTS((3,2,3),(97.3893722612836,146.084058391925,194.778744522567),
 .UNSPECIFIED.)
CURVE()
GEOMETRIC_REPRESENTATION_ITEM()
RATIONAL_B_SPLINE_CURVE((1.,0.707106781186548,1.,0.707106781186548,1.))
REPRESENTATION_ITEM('')
);
#58=(
BOUNDED_CURVE()
B_SPLINE_CURVE(2,(#1167,#1168,#1169,#1170,#1171),.UNSPECIFIED.,.F.,.F.)
B_SPLINE_CURVE_WITH_KNOTS((3,2,3),(-56.5486677646163,-28.2743338823081,
0.),.UNSPECIFIED.)
CURVE()
GEOMETRIC_REPRESENTATION_ITEM()
RATIONAL_B_SPLINE_CURVE((1.,0.707106781186548,1.,0.707106781186548,1.))
REPRESENTATION_ITEM('')
);
#59=(
BOUNDED_CURVE()
B_SPLINE_CURVE(2,(#1172,#1173,#1174,#1175,#1176),.UNSPECIFIED.,.F.,.F.)
B_SPLINE_CURVE_WITH_KNOTS((3,2,3),(-56.5486677646163,-28.2743338823081,
0.),.UNSPECIFIED.)
CURVE()
GEOMETRIC_REPRESENTATION_ITEM()
RATIONAL_B_SPLINE_CURVE((1.,0.707106781186548,1.,0.707106781186548,1.))
REPRESENTATION_ITEM('')
);
#60=(
BOUNDED_CURVE()
B_SPLINE_CURVE(2,(#1179,#1180,#1181,#1182,#1183),.UNSPECIFIED.,.F.,.F.)
B_SPLINE_CURVE_WITH_KNOTS((3,2,3),(138.230076757951,207.345115136926,276.460153515902),
 .UNSPECIFIED.)
CURVE()
GEOMETRIC_REPRESENTATION_ITEM()
RATIONAL_B_SPLINE_CURVE((1.,0.707106781186548,1.,0.707106781186548,1.))
REPRESENTATION_ITEM('')
);
#61=(
BOUNDED_CURVE()
B_SPLINE_CURVE(2,(#1184,#1185,#1186,#1187,#1188),.UNSPECIFIED.,.F.,.F.)
B_SPLINE_CURVE_WITH_KNOTS((3,2,3),(-138.230076757951,-69.1150383789754,
0.),.UNSPECIFIED.)
CURVE()
GEOMETRIC_REPRESENTATION_ITEM()
RATIONAL_B_SPLINE_CURVE((1.,0.707106781186548,1.,0.707106781186548,1.))
REPRESENTATION_ITEM('')
);
#62=(
BOUNDED_CURVE()
B_SPLINE_CURVE(2,(#1191,#1192,#1193,#1194,#1195),.UNSPECIFIED.,.F.,.F.)
B_SPLINE_CURVE_WITH_KNOTS((3,2,3),(97.3893722612836,146.084058391925,194.778744522567),
 .UNSPECIFIED.)
CURVE()
GEOMETRIC_REPRESENTATION_ITEM()
RATIONAL_B_SPLINE_CURVE((1.,0.707106781186548,1.,0.707106781186548,1.))
REPRESENTATION_ITEM('')
);
#63=(
BOUNDED_CURVE()
B_SPLINE_CURVE(2,(#1196,#1197,#1198,#1199,#1200),.UNSPECIFIED.,.F.,.F.)
B_SPLINE_CURVE_WITH_KNOTS((3,2,3),(-97.3893722612836,-48.6946861306418,
0.),.UNSPECIFIED.)
CURVE()
GEOMETRIC_REPRESENTATION_ITEM()
RATIONAL_B_SPLINE_CURVE((1.,0.707106781186548,1.,0.707106781186548,1.))
REPRESENTATION_ITEM('')
);
#64=(
BOUNDED_CURVE()
B_SPLINE_CURVE(2,(#1203,#1204,#1205,#1206,#1207),.UNSPECIFIED.,.F.,.F.)
B_SPLINE_CURVE_WITH_KNOTS((3,2,3),(91.106186954104,136.659280431156,182.212373908208),
 .UNSPECIFIED.)
CURVE()
GEOMETRIC_REPRESENTATION_ITEM()
RATIONAL_B_SPLINE_CURVE((1.,0.707106781186548,1.,0.707106781186548,1.))
REPRESENTATION_ITEM('')
);
#65=(
BOUNDED_CURVE()
B_SPLINE_CURVE(2,(#1208,#1209,#1210,#1211,#1212),.UNSPECIFIED.,.F.,.F.)
B_SPLINE_CURVE_WITH_KNOTS((3,2,3),(-91.106186954104,-45.553093477052,0.),
 .UNSPECIFIED.)
CURVE()
GEOMETRIC_REPRESENTATION_ITEM()
RATIONAL_B_SPLINE_CURVE((1.,0.707106781186548,1.,0.707106781186548,1.))
REPRESENTATION_ITEM('')
);
#66=(
BOUNDED_CURVE()
B_SPLINE_CURVE(2,(#1215,#1216,#1217,#1218,#1219),.UNSPECIFIED.,.F.,.F.)
B_SPLINE_CURVE_WITH_KNOTS((3,2,3),(-97.3893722612836,-48.6946861306418,
0.),.UNSPECIFIED.)
CURVE()
GEOMETRIC_REPRESENTATION_ITEM()
RATIONAL_B_SPLINE_CURVE((1.,0.707106781186548,1.,0.707106781186548,1.))
REPRESENTATION_ITEM('')
);
#67=(
BOUNDED_CURVE()
B_SPLINE_CURVE(2,(#1222,#1223,#1224,#1225,#1226),.UNSPECIFIED.,.F.,.F.)
B_SPLINE_CURVE_WITH_KNOTS((3,2,3),(-10.9955742875643,-5.49778714378214,
0.),.UNSPECIFIED.)
CURVE()
GEOMETRIC_REPRESENTATION_ITEM()
RATIONAL_B_SPLINE_CURVE((1.,0.707106781186548,1.,0.707106781186548,1.))
REPRESENTATION_ITEM('')
);
#68=(
BOUNDED_CURVE()
B_SPLINE_CURVE(2,(#1227,#1228,#1229,#1230,#1231),.UNSPECIFIED.,.F.,.F.)
B_SPLINE_CURVE_WITH_KNOTS((3,2,3),(-10.9955742875643,-5.49778714378214,
0.),.UNSPECIFIED.)
CURVE()
GEOMETRIC_REPRESENTATION_ITEM()
RATIONAL_B_SPLINE_CURVE((1.,0.707106781186548,1.,0.707106781186548,1.))
REPRESENTATION_ITEM('')
);
#69=(
BOUNDED_CURVE()
B_SPLINE_CURVE(2,(#1234,#1235,#1236,#1237,#1238),.UNSPECIFIED.,.F.,.F.)
B_SPLINE_CURVE_WITH_KNOTS((3,2,3),(-10.9955742875643,-7.33038285837618,
-3.66519142918809),.UNSPECIFIED.)
CURVE()
GEOMETRIC_REPRESENTATION_ITEM()
RATIONAL_B_SPLINE_CURVE((1.,0.866025403784439,1.,0.866025403784439,1.))
REPRESENTATION_ITEM('')
);
#70=(
BOUNDED_CURVE()
B_SPLINE_CURVE(2,(#1239,#1240,#1241,#1242,#1243),.UNSPECIFIED.,.F.,.F.)
B_SPLINE_CURVE_WITH_KNOTS((3,2,3),(-10.9955742875642,-5.49778714378212,
0.),.UNSPECIFIED.)
CURVE()
GEOMETRIC_REPRESENTATION_ITEM()
RATIONAL_B_SPLINE_CURVE((1.,0.707106781186549,1.,0.707106781186549,1.))
REPRESENTATION_ITEM('')
);
#71=(
BOUNDED_CURVE()
B_SPLINE_CURVE(2,(#1246,#1247,#1248),.UNSPECIFIED.,.F.,.F.)
B_SPLINE_CURVE_WITH_KNOTS((3,3),(-10.9955742875643,-7.33038285837619),
 .UNSPECIFIED.)
CURVE()
GEOMETRIC_REPRESENTATION_ITEM()
RATIONAL_B_SPLINE_CURVE((1.,0.866025403784439,1.))
REPRESENTATION_ITEM('')
);
#72=(
BOUNDED_CURVE()
B_SPLINE_CURVE(2,(#1249,#1250,#1251,#1252,#1253),.UNSPECIFIED.,.F.,.F.)
B_SPLINE_CURVE_WITH_KNOTS((3,2,3),(-10.9955742875643,-5.49778714378216,
0.),.UNSPECIFIED.)
CURVE()
GEOMETRIC_REPRESENTATION_ITEM()
RATIONAL_B_SPLINE_CURVE((1.,0.707106781186546,1.,0.707106781186546,1.))
REPRESENTATION_ITEM('')
);
#73=(
BOUNDED_CURVE()
B_SPLINE_CURVE(2,(#1256,#1257,#1258,#1259,#1260),.UNSPECIFIED.,.F.,.F.)
B_SPLINE_CURVE_WITH_KNOTS((3,2,3),(-10.9955742875643,-5.49778714378214,
0.),.UNSPECIFIED.)
CURVE()
GEOMETRIC_REPRESENTATION_ITEM()
RATIONAL_B_SPLINE_CURVE((1.,0.707106781186548,1.,0.707106781186548,1.))
REPRESENTATION_ITEM('')
);
#74=(
BOUNDED_CURVE()
B_SPLINE_CURVE(2,(#1263,#1264,#1265,#1266,#1267),.UNSPECIFIED.,.F.,.F.)
B_SPLINE_CURVE_WITH_KNOTS((3,2,3),(-10.9955742875642,-5.49778714378212,
0.),.UNSPECIFIED.)
CURVE()
GEOMETRIC_REPRESENTATION_ITEM()
RATIONAL_B_SPLINE_CURVE((1.,0.707106781186549,1.,0.707106781186549,1.))
REPRESENTATION_ITEM('')
);
#75=(
BOUNDED_CURVE()
B_SPLINE_CURVE(2,(#1268,#1269,#1270,#1271,#1272),.UNSPECIFIED.,.F.,.F.)
B_SPLINE_CURVE_WITH_KNOTS((3,2,3),(-10.9955742875643,-5.49778714378214,
0.),.UNSPECIFIED.)
CURVE()
GEOMETRIC_REPRESENTATION_ITEM()
RATIONAL_B_SPLINE_CURVE((1.,0.707106781186548,1.,0.707106781186548,1.))
REPRESENTATION_ITEM('')
);
#76=(
BOUNDED_CURVE()
B_SPLINE_CURVE(2,(#1275,#1276,#1277,#1278,#1279),.UNSPECIFIED.,.F.,.F.)
B_SPLINE_CURVE_WITH_KNOTS((3,2,3),(-10.9955742875643,-5.49778714378216,
0.),.UNSPECIFIED.)
CURVE()
GEOMETRIC_REPRESENTATION_ITEM()
RATIONAL_B_SPLINE_CURVE((1.,0.707106781186546,1.,0.707106781186546,1.))
REPRESENTATION_ITEM('')
);
#77=(
BOUNDED_CURVE()
B_SPLINE_CURVE(2,(#1280,#1281,#1282,#1283,#1284),.UNSPECIFIED.,.F.,.F.)
B_SPLINE_CURVE_WITH_KNOTS((3,2,3),(-10.9955742875643,-5.49778714378214,
0.),.UNSPECIFIED.)
CURVE()
GEOMETRIC_REPRESENTATION_ITEM()
RATIONAL_B_SPLINE_CURVE((1.,0.707106781186548,1.,0.707106781186548,1.))
REPRESENTATION_ITEM('')
);
#78=CYLINDRICAL_SURFACE('',#751,18.);
#79=CYLINDRICAL_SURFACE('',#753,44.);
#80=CYLINDRICAL_SURFACE('',#755,31.);
#81=CYLINDRICAL_SURFACE('',#757,29.);
#82=CYLINDRICAL_SURFACE('',#759,31.);
#83=CYLINDRICAL_SURFACE('',#760,3.5);
#84=CYLINDRICAL_SURFACE('',#761,3.5);
#85=CYLINDRICAL_SURFACE('',#762,3.5);
#86=CYLINDRICAL_SURFACE('',#763,3.49999999999999);
#87=CYLINDRICAL_SURFACE('',#764,3.5);
#88=CYLINDRICAL_SURFACE('',#765,3.5);
#89=CYLINDRICAL_SURFACE('',#766,18.);
#90=CYLINDRICAL_SURFACE('',#767,44.);
#91=CYLINDRICAL_SURFACE('',#768,31.);
#92=CYLINDRICAL_SURFACE('',#769,29.);
#93=CYLINDRICAL_SURFACE('',#770,31.);
#94=CYLINDRICAL_SURFACE('',#771,3.5);
#95=CYLINDRICAL_SURFACE('',#772,3.5);
#96=CYLINDRICAL_SURFACE('',#773,3.5);
#97=CYLINDRICAL_SURFACE('',#774,3.5);
#98=CYLINDRICAL_SURFACE('',#775,3.5);
#99=CYLINDRICAL_SURFACE('',#776,3.5);
#100=(
BOUNDED_SURFACE()
B_SPLINE_SURFACE(2,1,((#898,#899),(#900,#901),(#902,#903),(#904,#905),(#906,
#907)),.UNSPECIFIED.,.F.,.F.,.F.)
B_SPLINE_SURFACE_WITH_KNOTS((3,2,3),(2,2),(0.,53.5645317348244,107.129063469649),
(0.,48.2250218881775),.UNSPECIFIED.)
GEOMETRIC_REPRESENTATION_ITEM()
RATIONAL_B_SPLINE_SURFACE(((1.,1.),(0.707106781186548,0.707106781186548),
(1.,1.),(0.707106781186548,0.707106781186548),(1.,1.)))
REPRESENTATION_ITEM('')
SURFACE()
);
#101=(
BOUNDED_SURFACE()
B_SPLINE_SURFACE(2,1,((#924,#925),(#926,#927),(#928,#929),(#930,#931),(#932,
#933)),.UNSPECIFIED.,.F.,.F.,.F.)
B_SPLINE_SURFACE_WITH_KNOTS((3,2,3),(2,2),(107.129063469649,160.693595204473,
214.258126939298),(0.,48.2250218881775),.UNSPECIFIED.)
GEOMETRIC_REPRESENTATION_ITEM()
RATIONAL_B_SPLINE_SURFACE(((1.,1.),(0.707106781186548,0.707106781186548),
(1.,1.),(0.707106781186548,0.707106781186548),(1.,1.)))
REPRESENTATION_ITEM('')
SURFACE()
);
#102=COLOUR_RGB('',0.,0.541176470588235,1.);
#103=COLOUR_RGB('',0.,1.,0.);
#104=COLOUR_RGB('',1.,0.,0.);
#105=COLOUR_RGB('',1.,0.,0.);
#106=COLOUR_RGB('',1.,1.,0.);
#107=FILL_AREA_STYLE_COLOUR('',#102);
#108=FILL_AREA_STYLE_COLOUR('',#103);
#109=FILL_AREA_STYLE_COLOUR('',#104);
#110=FILL_AREA_STYLE_COLOUR('',#105);
#111=FILL_AREA_STYLE_COLOUR('',#106);
#112=FILL_AREA_STYLE('',(#107));
#113=FILL_AREA_STYLE('',(#108));
#114=FILL_AREA_STYLE('',(#109));
#115=FILL_AREA_STYLE('',(#110));
#116=FILL_AREA_STYLE('',(#111));
#117=SURFACE_STYLE_FILL_AREA(#112);
#118=SURFACE_STYLE_FILL_AREA(#113);
#119=SURFACE_STYLE_FILL_AREA(#114);
#120=SURFACE_STYLE_FILL_AREA(#115);
#121=SURFACE_STYLE_FILL_AREA(#116);
#122=SURFACE_SIDE_STYLE('',(#117));
#123=SURFACE_SIDE_STYLE('',(#118));
#124=SURFACE_SIDE_STYLE('',(#119));
#125=SURFACE_SIDE_STYLE('',(#120));
#126=SURFACE_SIDE_STYLE('',(#121));
#127=SURFACE_STYLE_USAGE(.BOTH.,#122);
#128=SURFACE_STYLE_USAGE(.BOTH.,#123);
#129=SURFACE_STYLE_USAGE(.BOTH.,#124);
#130=SURFACE_STYLE_USAGE(.BOTH.,#125);
#131=SURFACE_STYLE_USAGE(.BOTH.,#126);
#132=MECHANICAL_DESIGN_GEOMETRIC_PRESENTATION_REPRESENTATION('',(#138,#139,
#140,#141,#142),#735);
#133=PRESENTATION_STYLE_ASSIGNMENT((#127));
#134=PRESENTATION_STYLE_ASSIGNMENT((#128));
#135=PRESENTATION_STYLE_ASSIGNMENT((#129));
#136=PRESENTATION_STYLE_ASSIGNMENT((#130));
#137=PRESENTATION_STYLE_ASSIGNMENT((#131));
#138=STYLED_ITEM('',(#133),#146);
#139=STYLED_ITEM('',(#134),#147);
#140=STYLED_ITEM('',(#135),#167);
#141=STYLED_ITEM('',(#136),#183);
#142=STYLED_ITEM('',(#137),#148);
#143=PRESENTATION_LAYER_ASSIGNMENT('BoxLayer','',(#146));
#144=PRESENTATION_LAYER_ASSIGNMENT('PartLayer','',(#147));
#145=PRESENTATION_LAYER_ASSIGNMENT('PartLayer','',(#148));
#146=MANIFOLD_SOLID_BREP('brep_1',#150);
#147=MANIFOLD_SOLID_BREP('brep_2',#151);
#148=MANIFOLD_SOLID_BREP('brep_3',#152);
#149=ADVANCED_BREP_SHAPE_REPRESENTATION('brep_rep_0',(#146,#147,#148,#777),
#735);
#150=CLOSED_SHELL('',(#153,#154,#155,#156,#157,#158));
#151=CLOSED_SHELL('',(#159,#160,#161,#162,#163,#164));
#152=CLOSED_SHELL('',(#165,#166,#167,#168,#169,#170,#171,#172,#173,#174,
#175,#176,#177,#178,#179,#180,#181,#182,#183,#184,#185,#186,#187,#188,#189,
#190,#191,#192,#193));
#153=ADVANCED_FACE('',(#194),#701,.T.);
#154=ADVANCED_FACE('',(#195),#702,.T.);
#155=ADVANCED_FACE('',(#196),#703,.T.);
#156=ADVANCED_FACE('',(#197),#704,.T.);
#157=ADVANCED_FACE('',(#198),#705,.T.);
#158=ADVANCED_FACE('',(#199),#706,.T.);
#159=ADVANCED_FACE('',(#200),#707,.T.);
#160=ADVANCED_FACE('',(#201),#708,.T.);
#161=ADVANCED_FACE('',(#202),#709,.T.);
#162=ADVANCED_FACE('',(#203),#710,.T.);
#163=ADVANCED_FACE('',(#204),#711,.T.);
#164=ADVANCED_FACE('',(#205),#712,.T.);
#165=ADVANCED_FACE('',(#206),#100,.T.);
#166=ADVANCED_FACE('',(#207,#11),#713,.T.);
#167=ADVANCED_FACE('',(#208),#78,.F.);
#168=ADVANCED_FACE('',(#209,#12,#13,#14,#15,#16,#17,#18),#714,.T.);
#169=ADVANCED_FACE('',(#210),#79,.T.);
#170=ADVANCED_FACE('',(#211,#19,#20,#21,#22,#23,#24,#25),#715,.T.);
#171=ADVANCED_FACE('',(#212),#80,.T.);
#172=ADVANCED_FACE('',(#213,#26),#716,.T.);
#173=ADVANCED_FACE('',(#214),#81,.T.);
#174=ADVANCED_FACE('',(#215,#27),#717,.T.);
#175=ADVANCED_FACE('',(#216),#82,.T.);
#176=ADVANCED_FACE('',(#217),#83,.F.);
#177=ADVANCED_FACE('',(#218),#84,.F.);
#178=ADVANCED_FACE('',(#219),#85,.F.);
#179=ADVANCED_FACE('',(#220),#86,.F.);
#180=ADVANCED_FACE('',(#221),#87,.F.);
#181=ADVANCED_FACE('',(#222),#88,.F.);
#182=ADVANCED_FACE('',(#223),#101,.T.);
#183=ADVANCED_FACE('',(#224),#89,.F.);
#184=ADVANCED_FACE('',(#225),#90,.T.);
#185=ADVANCED_FACE('',(#226),#91,.T.);
#186=ADVANCED_FACE('',(#227),#92,.T.);
#187=ADVANCED_FACE('',(#228),#93,.T.);
#188=ADVANCED_FACE('',(#229),#94,.F.);
#189=ADVANCED_FACE('',(#230),#95,.F.);
#190=ADVANCED_FACE('',(#231),#96,.F.);
#191=ADVANCED_FACE('',(#232),#97,.F.);
#192=ADVANCED_FACE('',(#233),#98,.F.);
#193=ADVANCED_FACE('',(#234),#99,.F.);
#194=FACE_OUTER_BOUND('',#235,.T.);
#195=FACE_OUTER_BOUND('',#236,.T.);
#196=FACE_OUTER_BOUND('',#237,.T.);
#197=FACE_OUTER_BOUND('',#238,.T.);
#198=FACE_OUTER_BOUND('',#239,.T.);
#199=FACE_OUTER_BOUND('',#240,.T.);
#200=FACE_OUTER_BOUND('',#241,.T.);
#201=FACE_OUTER_BOUND('',#242,.T.);
#202=FACE_OUTER_BOUND('',#243,.T.);
#203=FACE_OUTER_BOUND('',#244,.T.);
#204=FACE_OUTER_BOUND('',#245,.T.);
#205=FACE_OUTER_BOUND('',#246,.T.);
#206=FACE_OUTER_BOUND('',#247,.T.);
#207=FACE_OUTER_BOUND('',#248,.T.);
#208=FACE_OUTER_BOUND('',#250,.T.);
#209=FACE_OUTER_BOUND('',#251,.T.);
#210=FACE_OUTER_BOUND('',#259,.T.);
#211=FACE_OUTER_BOUND('',#260,.T.);
#212=FACE_OUTER_BOUND('',#268,.T.);
#213=FACE_OUTER_BOUND('',#269,.T.);
#214=FACE_OUTER_BOUND('',#271,.T.);
#215=FACE_OUTER_BOUND('',#272,.T.);
#216=FACE_OUTER_BOUND('',#274,.T.);
#217=FACE_OUTER_BOUND('',#275,.T.);
#218=FACE_OUTER_BOUND('',#276,.T.);
#219=FACE_OUTER_BOUND('',#277,.T.);
#220=FACE_OUTER_BOUND('',#278,.T.);
#221=FACE_OUTER_BOUND('',#279,.T.);
#222=FACE_OUTER_BOUND('',#280,.T.);
#223=FACE_OUTER_BOUND('',#281,.T.);
#224=FACE_OUTER_BOUND('',#282,.T.);
#225=FACE_OUTER_BOUND('',#283,.T.);
#226=FACE_OUTER_BOUND('',#284,.T.);
#227=FACE_OUTER_BOUND('',#285,.T.);
#228=FACE_OUTER_BOUND('',#286,.T.);
#229=FACE_OUTER_BOUND('',#287,.T.);
#230=FACE_OUTER_BOUND('',#288,.T.);
#231=FACE_OUTER_BOUND('',#289,.T.);
#232=FACE_OUTER_BOUND('',#290,.T.);
#233=FACE_OUTER_BOUND('',#291,.T.);
#234=FACE_OUTER_BOUND('',#292,.T.);
#235=EDGE_LOOP('',(#293,#294,#295,#296));
#236=EDGE_LOOP('',(#297,#298,#299,#300));
#237=EDGE_LOOP('',(#301,#302,#303,#304));
#238=EDGE_LOOP('',(#305,#306,#307,#308));
#239=EDGE_LOOP('',(#309,#310,#311,#312));
#240=EDGE_LOOP('',(#313,#314,#315,#316));
#241=EDGE_LOOP('',(#317,#318,#319,#320));
#242=EDGE_LOOP('',(#321,#322,#323,#324));
#243=EDGE_LOOP('',(#325,#326,#327,#328));
#244=EDGE_LOOP('',(#329,#330,#331,#332));
#245=EDGE_LOOP('',(#333,#334,#335,#336));
#246=EDGE_LOOP('',(#337,#338,#339,#340));
#247=EDGE_LOOP('',(#341,#342,#343,#344));
#248=EDGE_LOOP('',(#345,#346));
#249=EDGE_LOOP('',(#347,#348));
#250=EDGE_LOOP('',(#349,#350,#351,#352));
#251=EDGE_LOOP('',(#353,#354));
#252=EDGE_LOOP('',(#355,#356));
#253=EDGE_LOOP('',(#357,#358));
#254=EDGE_LOOP('',(#359,#360));
#255=EDGE_LOOP('',(#361,#362));
#256=EDGE_LOOP('',(#363,#364));
#257=EDGE_LOOP('',(#365,#366));
#258=EDGE_LOOP('',(#367,#368));
#259=EDGE_LOOP('',(#369,#370,#371,#372));
#260=EDGE_LOOP('',(#373,#374));
#261=EDGE_LOOP('',(#375,#376,#377));
#262=EDGE_LOOP('',(#378,#379));
#263=EDGE_LOOP('',(#380,#381,#382));
#264=EDGE_LOOP('',(#383,#384,#385));
#265=EDGE_LOOP('',(#386,#387));
#266=EDGE_LOOP('',(#388,#389));
#267=EDGE_LOOP('',(#390,#391,#392));
#268=EDGE_LOOP('',(#393,#394,#395,#396));
#269=EDGE_LOOP('',(#397,#398));
#270=EDGE_LOOP('',(#399,#400));
#271=EDGE_LOOP('',(#401,#402,#403,#404));
#272=EDGE_LOOP('',(#405,#406));
#273=EDGE_LOOP('',(#407,#408));
#274=EDGE_LOOP('',(#409,#410,#411,#412));
#275=EDGE_LOOP('',(#413,#414,#415,#416));
#276=EDGE_LOOP('',(#417,#418,#419,#420,#421));
#277=EDGE_LOOP('',(#422,#423,#424,#425,#426));
#278=EDGE_LOOP('',(#427,#428,#429,#430));
#279=EDGE_LOOP('',(#431,#432,#433,#434));
#280=EDGE_LOOP('',(#435,#436,#437,#438));
#281=EDGE_LOOP('',(#439,#440,#441,#442));
#282=EDGE_LOOP('',(#443,#444,#445,#446));
#283=EDGE_LOOP('',(#447,#448,#449,#450));
#284=EDGE_LOOP('',(#451,#452,#453,#454));
#285=EDGE_LOOP('',(#455,#456,#457,#458));
#286=EDGE_LOOP('',(#459,#460,#461,#462));
#287=EDGE_LOOP('',(#463,#464,#465,#466));
#288=EDGE_LOOP('',(#467,#468,#469,#470));
#289=EDGE_LOOP('',(#471,#472,#473,#474));
#290=EDGE_LOOP('',(#475,#476,#477,#478));
#291=EDGE_LOOP('',(#479,#480,#481,#482,#483));
#292=EDGE_LOOP('',(#484,#485,#486,#487,#488));
#293=ORIENTED_EDGE('',*,*,#489,.T.);
#294=ORIENTED_EDGE('',*,*,#490,.T.);
#295=ORIENTED_EDGE('',*,*,#491,.F.);
#296=ORIENTED_EDGE('',*,*,#492,.F.);
#297=ORIENTED_EDGE('',*,*,#493,.T.);
#298=ORIENTED_EDGE('',*,*,#494,.T.);
#299=ORIENTED_EDGE('',*,*,#495,.F.);
#300=ORIENTED_EDGE('',*,*,#490,.F.);
#301=ORIENTED_EDGE('',*,*,#496,.T.);
#302=ORIENTED_EDGE('',*,*,#497,.T.);
#303=ORIENTED_EDGE('',*,*,#498,.F.);
#304=ORIENTED_EDGE('',*,*,#494,.F.);
#305=ORIENTED_EDGE('',*,*,#499,.T.);
#306=ORIENTED_EDGE('',*,*,#492,.T.);
#307=ORIENTED_EDGE('',*,*,#500,.F.);
#308=ORIENTED_EDGE('',*,*,#497,.F.);
#309=ORIENTED_EDGE('',*,*,#499,.F.);
#310=ORIENTED_EDGE('',*,*,#496,.F.);
#311=ORIENTED_EDGE('',*,*,#493,.F.);
#312=ORIENTED_EDGE('',*,*,#489,.F.);
#313=ORIENTED_EDGE('',*,*,#491,.T.);
#314=ORIENTED_EDGE('',*,*,#495,.T.);
#315=ORIENTED_EDGE('',*,*,#498,.T.);
#316=ORIENTED_EDGE('',*,*,#500,.T.);
#317=ORIENTED_EDGE('',*,*,#501,.T.);
#318=ORIENTED_EDGE('',*,*,#502,.T.);
#319=ORIENTED_EDGE('',*,*,#503,.F.);
#320=ORIENTED_EDGE('',*,*,#504,.F.);
#321=ORIENTED_EDGE('',*,*,#505,.T.);
#322=ORIENTED_EDGE('',*,*,#506,.T.);
#323=ORIENTED_EDGE('',*,*,#507,.F.);
#324=ORIENTED_EDGE('',*,*,#502,.F.);
#325=ORIENTED_EDGE('',*,*,#508,.T.);
#326=ORIENTED_EDGE('',*,*,#509,.T.);
#327=ORIENTED_EDGE('',*,*,#510,.F.);
#328=ORIENTED_EDGE('',*,*,#506,.F.);
#329=ORIENTED_EDGE('',*,*,#511,.T.);
#330=ORIENTED_EDGE('',*,*,#504,.T.);
#331=ORIENTED_EDGE('',*,*,#512,.F.);
#332=ORIENTED_EDGE('',*,*,#509,.F.);
#333=ORIENTED_EDGE('',*,*,#511,.F.);
#334=ORIENTED_EDGE('',*,*,#508,.F.);
#335=ORIENTED_EDGE('',*,*,#505,.F.);
#336=ORIENTED_EDGE('',*,*,#501,.F.);
#337=ORIENTED_EDGE('',*,*,#503,.T.);
#338=ORIENTED_EDGE('',*,*,#507,.T.);
#339=ORIENTED_EDGE('',*,*,#510,.T.);
#340=ORIENTED_EDGE('',*,*,#512,.T.);
#341=ORIENTED_EDGE('',*,*,#553,.T.);
#342=ORIENTED_EDGE('',*,*,#555,.T.);
#343=ORIENTED_EDGE('',*,*,#515,.F.);
#344=ORIENTED_EDGE('',*,*,#513,.T.);
#345=ORIENTED_EDGE('',*,*,#554,.F.);
#346=ORIENTED_EDGE('',*,*,#513,.F.);
#347=ORIENTED_EDGE('',*,*,#517,.T.);
#348=ORIENTED_EDGE('',*,*,#558,.T.);
#349=ORIENTED_EDGE('',*,*,#517,.F.);
#350=ORIENTED_EDGE('',*,*,#518,.T.);
#351=ORIENTED_EDGE('',*,*,#557,.F.);
#352=ORIENTED_EDGE('',*,*,#556,.F.);
#353=ORIENTED_EDGE('',*,*,#520,.T.);
#354=ORIENTED_EDGE('',*,*,#561,.T.);
#355=ORIENTED_EDGE('',*,*,#546,.T.);
#356=ORIENTED_EDGE('',*,*,#582,.T.);
#357=ORIENTED_EDGE('',*,*,#542,.T.);
#358=ORIENTED_EDGE('',*,*,#580,.T.);
#359=ORIENTED_EDGE('',*,*,#538,.T.);
#360=ORIENTED_EDGE('',*,*,#578,.T.);
#361=ORIENTED_EDGE('',*,*,#534,.T.);
#362=ORIENTED_EDGE('',*,*,#575,.T.);
#363=ORIENTED_EDGE('',*,*,#531,.T.);
#364=ORIENTED_EDGE('',*,*,#572,.T.);
#365=ORIENTED_EDGE('',*,*,#516,.T.);
#366=ORIENTED_EDGE('',*,*,#557,.T.);
#367=ORIENTED_EDGE('',*,*,#550,.T.);
#368=ORIENTED_EDGE('',*,*,#585,.T.);
#369=ORIENTED_EDGE('',*,*,#559,.T.);
#370=ORIENTED_EDGE('',*,*,#520,.F.);
#371=ORIENTED_EDGE('',*,*,#521,.F.);
#372=ORIENTED_EDGE('',*,*,#519,.T.);
#373=ORIENTED_EDGE('',*,*,#560,.F.);
#374=ORIENTED_EDGE('',*,*,#519,.F.);
#375=ORIENTED_EDGE('',*,*,#548,.T.);
#376=ORIENTED_EDGE('',*,*,#583,.T.);
#377=ORIENTED_EDGE('',*,*,#545,.T.);
#378=ORIENTED_EDGE('',*,*,#544,.T.);
#379=ORIENTED_EDGE('',*,*,#541,.T.);
#380=ORIENTED_EDGE('',*,*,#540,.T.);
#381=ORIENTED_EDGE('',*,*,#537,.T.);
#382=ORIENTED_EDGE('',*,*,#577,.T.);
#383=ORIENTED_EDGE('',*,*,#536,.T.);
#384=ORIENTED_EDGE('',*,*,#533,.T.);
#385=ORIENTED_EDGE('',*,*,#574,.T.);
#386=ORIENTED_EDGE('',*,*,#530,.T.);
#387=ORIENTED_EDGE('',*,*,#571,.T.);
#388=ORIENTED_EDGE('',*,*,#523,.T.);
#389=ORIENTED_EDGE('',*,*,#564,.T.);
#390=ORIENTED_EDGE('',*,*,#552,.T.);
#391=ORIENTED_EDGE('',*,*,#586,.T.);
#392=ORIENTED_EDGE('',*,*,#549,.T.);
#393=ORIENTED_EDGE('',*,*,#562,.T.);
#394=ORIENTED_EDGE('',*,*,#523,.F.);
#395=ORIENTED_EDGE('',*,*,#524,.F.);
#396=ORIENTED_EDGE('',*,*,#522,.T.);
#397=ORIENTED_EDGE('',*,*,#563,.F.);
#398=ORIENTED_EDGE('',*,*,#522,.F.);
#399=ORIENTED_EDGE('',*,*,#526,.T.);
#400=ORIENTED_EDGE('',*,*,#567,.T.);
#401=ORIENTED_EDGE('',*,*,#565,.T.);
#402=ORIENTED_EDGE('',*,*,#526,.F.);
#403=ORIENTED_EDGE('',*,*,#527,.F.);
#404=ORIENTED_EDGE('',*,*,#525,.T.);
#405=ORIENTED_EDGE('',*,*,#528,.T.);
#406=ORIENTED_EDGE('',*,*,#569,.T.);
#407=ORIENTED_EDGE('',*,*,#566,.F.);
#408=ORIENTED_EDGE('',*,*,#525,.F.);
#409=ORIENTED_EDGE('',*,*,#568,.T.);
#410=ORIENTED_EDGE('',*,*,#528,.F.);
#411=ORIENTED_EDGE('',*,*,#529,.F.);
#412=ORIENTED_EDGE('',*,*,#555,.F.);
#413=ORIENTED_EDGE('',*,*,#531,.F.);
#414=ORIENTED_EDGE('',*,*,#532,.T.);
#415=ORIENTED_EDGE('',*,*,#571,.F.);
#416=ORIENTED_EDGE('',*,*,#570,.F.);
#417=ORIENTED_EDGE('',*,*,#534,.F.);
#418=ORIENTED_EDGE('',*,*,#535,.T.);
#419=ORIENTED_EDGE('',*,*,#536,.F.);
#420=ORIENTED_EDGE('',*,*,#574,.F.);
#421=ORIENTED_EDGE('',*,*,#573,.F.);
#422=ORIENTED_EDGE('',*,*,#538,.F.);
#423=ORIENTED_EDGE('',*,*,#539,.T.);
#424=ORIENTED_EDGE('',*,*,#540,.F.);
#425=ORIENTED_EDGE('',*,*,#577,.F.);
#426=ORIENTED_EDGE('',*,*,#576,.F.);
#427=ORIENTED_EDGE('',*,*,#542,.F.);
#428=ORIENTED_EDGE('',*,*,#543,.T.);
#429=ORIENTED_EDGE('',*,*,#544,.F.);
#430=ORIENTED_EDGE('',*,*,#579,.F.);
#431=ORIENTED_EDGE('',*,*,#546,.F.);
#432=ORIENTED_EDGE('',*,*,#547,.T.);
#433=ORIENTED_EDGE('',*,*,#583,.F.);
#434=ORIENTED_EDGE('',*,*,#581,.F.);
#435=ORIENTED_EDGE('',*,*,#550,.F.);
#436=ORIENTED_EDGE('',*,*,#551,.T.);
#437=ORIENTED_EDGE('',*,*,#586,.F.);
#438=ORIENTED_EDGE('',*,*,#584,.F.);
#439=ORIENTED_EDGE('',*,*,#554,.T.);
#440=ORIENTED_EDGE('',*,*,#515,.T.);
#441=ORIENTED_EDGE('',*,*,#514,.T.);
#442=ORIENTED_EDGE('',*,*,#553,.F.);
#443=ORIENTED_EDGE('',*,*,#556,.T.);
#444=ORIENTED_EDGE('',*,*,#516,.F.);
#445=ORIENTED_EDGE('',*,*,#518,.F.);
#446=ORIENTED_EDGE('',*,*,#558,.F.);
#447=ORIENTED_EDGE('',*,*,#560,.T.);
#448=ORIENTED_EDGE('',*,*,#521,.T.);
#449=ORIENTED_EDGE('',*,*,#561,.F.);
#450=ORIENTED_EDGE('',*,*,#559,.F.);
#451=ORIENTED_EDGE('',*,*,#563,.T.);
#452=ORIENTED_EDGE('',*,*,#524,.T.);
#453=ORIENTED_EDGE('',*,*,#564,.F.);
#454=ORIENTED_EDGE('',*,*,#562,.F.);
#455=ORIENTED_EDGE('',*,*,#566,.T.);
#456=ORIENTED_EDGE('',*,*,#527,.T.);
#457=ORIENTED_EDGE('',*,*,#567,.F.);
#458=ORIENTED_EDGE('',*,*,#565,.F.);
#459=ORIENTED_EDGE('',*,*,#514,.F.);
#460=ORIENTED_EDGE('',*,*,#529,.T.);
#461=ORIENTED_EDGE('',*,*,#569,.F.);
#462=ORIENTED_EDGE('',*,*,#568,.F.);
#463=ORIENTED_EDGE('',*,*,#570,.T.);
#464=ORIENTED_EDGE('',*,*,#530,.F.);
#465=ORIENTED_EDGE('',*,*,#532,.F.);
#466=ORIENTED_EDGE('',*,*,#572,.F.);
#467=ORIENTED_EDGE('',*,*,#573,.T.);
#468=ORIENTED_EDGE('',*,*,#533,.F.);
#469=ORIENTED_EDGE('',*,*,#535,.F.);
#470=ORIENTED_EDGE('',*,*,#575,.F.);
#471=ORIENTED_EDGE('',*,*,#576,.T.);
#472=ORIENTED_EDGE('',*,*,#537,.F.);
#473=ORIENTED_EDGE('',*,*,#539,.F.);
#474=ORIENTED_EDGE('',*,*,#578,.F.);
#475=ORIENTED_EDGE('',*,*,#579,.T.);
#476=ORIENTED_EDGE('',*,*,#541,.F.);
#477=ORIENTED_EDGE('',*,*,#543,.F.);
#478=ORIENTED_EDGE('',*,*,#580,.F.);
#479=ORIENTED_EDGE('',*,*,#581,.T.);
#480=ORIENTED_EDGE('',*,*,#548,.F.);
#481=ORIENTED_EDGE('',*,*,#545,.F.);
#482=ORIENTED_EDGE('',*,*,#547,.F.);
#483=ORIENTED_EDGE('',*,*,#582,.F.);
#484=ORIENTED_EDGE('',*,*,#584,.T.);
#485=ORIENTED_EDGE('',*,*,#552,.F.);
#486=ORIENTED_EDGE('',*,*,#549,.F.);
#487=ORIENTED_EDGE('',*,*,#551,.F.);
#488=ORIENTED_EDGE('',*,*,#585,.F.);
#489=EDGE_CURVE('',#635,#636,#587,.T.);
#490=EDGE_CURVE('',#636,#637,#588,.T.);
#491=EDGE_CURVE('',#638,#637,#589,.T.);
#492=EDGE_CURVE('',#635,#638,#590,.T.);
#493=EDGE_CURVE('',#636,#639,#591,.T.);
#494=EDGE_CURVE('',#639,#640,#592,.T.);
#495=EDGE_CURVE('',#637,#640,#593,.T.);
#496=EDGE_CURVE('',#639,#641,#594,.T.);
#497=EDGE_CURVE('',#641,#642,#595,.T.);
#498=EDGE_CURVE('',#640,#642,#596,.T.);
#499=EDGE_CURVE('',#641,#635,#597,.T.);
#500=EDGE_CURVE('',#642,#638,#598,.T.);
#501=EDGE_CURVE('',#643,#644,#599,.T.);
#502=EDGE_CURVE('',#644,#645,#600,.T.);
#503=EDGE_CURVE('',#646,#645,#601,.T.);
#504=EDGE_CURVE('',#643,#646,#602,.T.);
#505=EDGE_CURVE('',#644,#647,#603,.T.);
#506=EDGE_CURVE('',#647,#648,#604,.T.);
#507=EDGE_CURVE('',#645,#648,#605,.T.);
#508=EDGE_CURVE('',#647,#649,#606,.T.);
#509=EDGE_CURVE('',#649,#650,#607,.T.);
#510=EDGE_CURVE('',#648,#650,#608,.T.);
#511=EDGE_CURVE('',#649,#643,#609,.T.);
#512=EDGE_CURVE('',#650,#646,#610,.T.);
#513=EDGE_CURVE('',#651,#679,#28,.T.);
#514=EDGE_CURVE('',#652,#680,#29,.T.);
#515=EDGE_CURVE('',#651,#652,#611,.T.);
#516=EDGE_CURVE('',#654,#682,#30,.T.);
#517=EDGE_CURVE('',#653,#681,#31,.T.);
#518=EDGE_CURVE('',#653,#654,#612,.T.);
#519=EDGE_CURVE('',#662,#683,#32,.T.);
#520=EDGE_CURVE('',#661,#684,#33,.T.);
#521=EDGE_CURVE('',#662,#661,#613,.T.);
#522=EDGE_CURVE('',#670,#685,#34,.T.);
#523=EDGE_CURVE('',#669,#686,#35,.T.);
#524=EDGE_CURVE('',#670,#669,#614,.T.);
#525=EDGE_CURVE('',#672,#687,#36,.T.);
#526=EDGE_CURVE('',#671,#688,#37,.T.);
#527=EDGE_CURVE('',#672,#671,#615,.T.);
#528=EDGE_CURVE('',#673,#689,#38,.T.);
#529=EDGE_CURVE('',#652,#673,#616,.T.);
#530=EDGE_CURVE('',#668,#691,#39,.T.);
#531=EDGE_CURVE('',#660,#690,#40,.T.);
#532=EDGE_CURVE('',#660,#668,#617,.T.);
#533=EDGE_CURVE('',#674,#693,#41,.T.);
#534=EDGE_CURVE('',#659,#692,#42,.T.);
#535=EDGE_CURVE('',#659,#674,#618,.T.);
#536=EDGE_CURVE('',#667,#674,#43,.T.);
#537=EDGE_CURVE('',#675,#695,#44,.T.);
#538=EDGE_CURVE('',#658,#694,#45,.T.);
#539=EDGE_CURVE('',#658,#675,#619,.T.);
#540=EDGE_CURVE('',#666,#675,#46,.T.);
#541=EDGE_CURVE('',#676,#665,#47,.T.);
#542=EDGE_CURVE('',#657,#696,#48,.T.);
#543=EDGE_CURVE('',#657,#676,#620,.T.);
#544=EDGE_CURVE('',#665,#676,#49,.T.);
#545=EDGE_CURVE('',#677,#664,#50,.T.);
#546=EDGE_CURVE('',#656,#697,#51,.T.);
#547=EDGE_CURVE('',#656,#677,#621,.T.);
#548=EDGE_CURVE('',#664,#698,#52,.T.);
#549=EDGE_CURVE('',#678,#663,#53,.T.);
#550=EDGE_CURVE('',#655,#699,#54,.T.);
#551=EDGE_CURVE('',#655,#678,#622,.T.);
#552=EDGE_CURVE('',#663,#700,#55,.T.);
#553=EDGE_CURVE('',#679,#680,#623,.T.);
#554=EDGE_CURVE('',#679,#651,#56,.T.);
#555=EDGE_CURVE('',#680,#652,#57,.T.);
#556=EDGE_CURVE('',#681,#682,#624,.T.);
#557=EDGE_CURVE('',#682,#654,#58,.T.);
#558=EDGE_CURVE('',#681,#653,#59,.T.);
#559=EDGE_CURVE('',#683,#684,#625,.T.);
#560=EDGE_CURVE('',#683,#662,#60,.T.);
#561=EDGE_CURVE('',#684,#661,#61,.T.);
#562=EDGE_CURVE('',#685,#686,#626,.T.);
#563=EDGE_CURVE('',#685,#670,#62,.T.);
#564=EDGE_CURVE('',#686,#669,#63,.T.);
#565=EDGE_CURVE('',#687,#688,#627,.T.);
#566=EDGE_CURVE('',#687,#672,#64,.T.);
#567=EDGE_CURVE('',#688,#671,#65,.T.);
#568=EDGE_CURVE('',#680,#689,#628,.T.);
#569=EDGE_CURVE('',#689,#673,#66,.T.);
#570=EDGE_CURVE('',#690,#691,#629,.T.);
#571=EDGE_CURVE('',#691,#668,#67,.T.);
#572=EDGE_CURVE('',#690,#660,#68,.T.);
#573=EDGE_CURVE('',#692,#693,#630,.T.);
#574=EDGE_CURVE('',#693,#667,#69,.T.);
#575=EDGE_CURVE('',#692,#659,#70,.T.);
#576=EDGE_CURVE('',#694,#695,#631,.T.);
#577=EDGE_CURVE('',#695,#666,#71,.T.);
#578=EDGE_CURVE('',#694,#658,#72,.T.);
#579=EDGE_CURVE('',#696,#665,#632,.T.);
#580=EDGE_CURVE('',#696,#657,#73,.T.);
#581=EDGE_CURVE('',#697,#698,#633,.T.);
#582=EDGE_CURVE('',#697,#656,#74,.T.);
#583=EDGE_CURVE('',#698,#677,#75,.T.);
#584=EDGE_CURVE('',#699,#700,#634,.T.);
#585=EDGE_CURVE('',#699,#655,#76,.T.);
#586=EDGE_CURVE('',#700,#678,#77,.T.);
#587=B_SPLINE_CURVE_WITH_KNOTS('',1,(#836,#837),.UNSPECIFIED.,.F.,.F.,(2,
2),(0.,93.),.UNSPECIFIED.);
#588=B_SPLINE_CURVE_WITH_KNOTS('',1,(#838,#839),.UNSPECIFIED.,.F.,.F.,(2,
2),(0.,44.),.UNSPECIFIED.);
#589=B_SPLINE_CURVE_WITH_KNOTS('',1,(#840,#841),.UNSPECIFIED.,.F.,.F.,(2,
2),(0.,93.),.UNSPECIFIED.);
#590=B_SPLINE_CURVE_WITH_KNOTS('',1,(#842,#843),.UNSPECIFIED.,.F.,.F.,(2,
2),(0.,44.),.UNSPECIFIED.);
#591=B_SPLINE_CURVE_WITH_KNOTS('',1,(#844,#845),.UNSPECIFIED.,.F.,.F.,(2,
2),(93.,140.),.UNSPECIFIED.);
#592=B_SPLINE_CURVE_WITH_KNOTS('',1,(#846,#847),.UNSPECIFIED.,.F.,.F.,(2,
2),(0.,44.),.UNSPECIFIED.);
#593=B_SPLINE_CURVE_WITH_KNOTS('',1,(#848,#849),.UNSPECIFIED.,.F.,.F.,(2,
2),(93.,140.),.UNSPECIFIED.);
#594=B_SPLINE_CURVE_WITH_KNOTS('',1,(#850,#851),.UNSPECIFIED.,.F.,.F.,(2,
2),(140.,233.),.UNSPECIFIED.);
#595=B_SPLINE_CURVE_WITH_KNOTS('',1,(#852,#853),.UNSPECIFIED.,.F.,.F.,(2,
2),(0.,44.),.UNSPECIFIED.);
#596=B_SPLINE_CURVE_WITH_KNOTS('',1,(#854,#855),.UNSPECIFIED.,.F.,.F.,(2,
2),(140.,233.),.UNSPECIFIED.);
#597=B_SPLINE_CURVE_WITH_KNOTS('',1,(#856,#857),.UNSPECIFIED.,.F.,.F.,(2,
2),(233.,280.),.UNSPECIFIED.);
#598=B_SPLINE_CURVE_WITH_KNOTS('',1,(#858,#859),.UNSPECIFIED.,.F.,.F.,(2,
2),(233.,280.),.UNSPECIFIED.);
#599=B_SPLINE_CURVE_WITH_KNOTS('',1,(#874,#875),.UNSPECIFIED.,.F.,.F.,(2,
2),(0.,73.),.UNSPECIFIED.);
#600=B_SPLINE_CURVE_WITH_KNOTS('',1,(#876,#877),.UNSPECIFIED.,.F.,.F.,(2,
2),(0.,54.),.UNSPECIFIED.);
#601=B_SPLINE_CURVE_WITH_KNOTS('',1,(#878,#879),.UNSPECIFIED.,.F.,.F.,(2,
2),(0.,73.),.UNSPECIFIED.);
#602=B_SPLINE_CURVE_WITH_KNOTS('',1,(#880,#881),.UNSPECIFIED.,.F.,.F.,(2,
2),(0.,54.),.UNSPECIFIED.);
#603=B_SPLINE_CURVE_WITH_KNOTS('',1,(#882,#883),.UNSPECIFIED.,.F.,.F.,(2,
2),(73.,135.),.UNSPECIFIED.);
#604=B_SPLINE_CURVE_WITH_KNOTS('',1,(#884,#885),.UNSPECIFIED.,.F.,.F.,(2,
2),(0.,54.),.UNSPECIFIED.);
#605=B_SPLINE_CURVE_WITH_KNOTS('',1,(#886,#887),.UNSPECIFIED.,.F.,.F.,(2,
2),(73.,135.),.UNSPECIFIED.);
#606=B_SPLINE_CURVE_WITH_KNOTS('',1,(#888,#889),.UNSPECIFIED.,.F.,.F.,(2,
2),(135.,208.),.UNSPECIFIED.);
#607=B_SPLINE_CURVE_WITH_KNOTS('',1,(#890,#891),.UNSPECIFIED.,.F.,.F.,(2,
2),(0.,54.),.UNSPECIFIED.);
#608=B_SPLINE_CURVE_WITH_KNOTS('',1,(#892,#893),.UNSPECIFIED.,.F.,.F.,(2,
2),(135.,208.),.UNSPECIFIED.);
#609=B_SPLINE_CURVE_WITH_KNOTS('',1,(#894,#895),.UNSPECIFIED.,.F.,.F.,(2,
2),(208.,270.),.UNSPECIFIED.);
#610=B_SPLINE_CURVE_WITH_KNOTS('',1,(#896,#897),.UNSPECIFIED.,.F.,.F.,(2,
2),(208.,270.),.UNSPECIFIED.);
#611=B_SPLINE_CURVE_WITH_KNOTS('',1,(#1005,#1006),.UNSPECIFIED.,.F.,.F.,
(2,2),(42.4264068711928,43.8406204335659),.UNSPECIFIED.);
#612=B_SPLINE_CURVE_WITH_KNOTS('',1,(#1017,#1018),.UNSPECIFIED.,.F.,.F.,
(2,2),(3.10024,34.10024),.UNSPECIFIED.);
#613=B_SPLINE_CURVE_WITH_KNOTS('',1,(#1029,#1030),.UNSPECIFIED.,.F.,.F.,
(2,2),(0.600239999999986,6.60023999999999),.UNSPECIFIED.);
#614=B_SPLINE_CURVE_WITH_KNOTS('',1,(#1041,#1042),.UNSPECIFIED.,.F.,.F.,
(2,2),(1.50024,16.50024),.UNSPECIFIED.);
#615=B_SPLINE_CURVE_WITH_KNOTS('',1,(#1053,#1054),.UNSPECIFIED.,.F.,.F.,
(2,2),(0.200239999999999,2.20024),.UNSPECIFIED.);
#616=B_SPLINE_CURVE_WITH_KNOTS('',1,(#1060,#1061),.UNSPECIFIED.,.F.,.F.,
(2,2),(0.700240000000001,7.70024),.UNSPECIFIED.);
#617=B_SPLINE_CURVE_WITH_KNOTS('',1,(#1072,#1073),.UNSPECIFIED.,.F.,.F.,
(2,2),(0.600240000000001,6.60024),.UNSPECIFIED.);
#618=B_SPLINE_CURVE_WITH_KNOTS('',1,(#1084,#1085),.UNSPECIFIED.,.F.,.F.,
(2,2),(0.600240000000001,6.60024),.UNSPECIFIED.);
#619=B_SPLINE_CURVE_WITH_KNOTS('',1,(#1099,#1100),.UNSPECIFIED.,.F.,.F.,
(2,2),(0.600240000000001,6.60024),.UNSPECIFIED.);
#620=B_SPLINE_CURVE_WITH_KNOTS('',1,(#1116,#1117),.UNSPECIFIED.,.F.,.F.,
(2,2),(0.600240000000001,6.60024),.UNSPECIFIED.);
#621=B_SPLINE_CURVE_WITH_KNOTS('',1,(#1133,#1134),.UNSPECIFIED.,.F.,.F.,
(2,2),(0.600240000000001,6.60024),.UNSPECIFIED.);
#622=B_SPLINE_CURVE_WITH_KNOTS('',1,(#1146,#1147),.UNSPECIFIED.,.F.,.F.,
(2,2),(0.600240000000001,6.60024),.UNSPECIFIED.);
#623=B_SPLINE_CURVE_WITH_KNOTS('',1,(#1153,#1154),.UNSPECIFIED.,.F.,.F.,
(2,2),(42.4264068711929,43.8406204335659),.UNSPECIFIED.);
#624=B_SPLINE_CURVE_WITH_KNOTS('',1,(#1165,#1166),.UNSPECIFIED.,.F.,.F.,
(2,2),(3.10024,34.10024),.UNSPECIFIED.);
#625=B_SPLINE_CURVE_WITH_KNOTS('',1,(#1177,#1178),.UNSPECIFIED.,.F.,.F.,
(2,2),(0.600239999999986,6.60023999999999),.UNSPECIFIED.);
#626=B_SPLINE_CURVE_WITH_KNOTS('',1,(#1189,#1190),.UNSPECIFIED.,.F.,.F.,
(2,2),(1.50024,16.50024),.UNSPECIFIED.);
#627=B_SPLINE_CURVE_WITH_KNOTS('',1,(#1201,#1202),.UNSPECIFIED.,.F.,.F.,
(2,2),(0.200239999999999,2.20024),.UNSPECIFIED.);
#628=B_SPLINE_CURVE_WITH_KNOTS('',1,(#1213,#1214),.UNSPECIFIED.,.F.,.F.,
(2,2),(0.700240000000001,7.70024),.UNSPECIFIED.);
#629=B_SPLINE_CURVE_WITH_KNOTS('',1,(#1220,#1221),.UNSPECIFIED.,.F.,.F.,
(2,2),(0.60024,6.60024),.UNSPECIFIED.);
#630=B_SPLINE_CURVE_WITH_KNOTS('',1,(#1232,#1233),.UNSPECIFIED.,.F.,.F.,
(2,2),(0.60024,6.60024),.UNSPECIFIED.);
#631=B_SPLINE_CURVE_WITH_KNOTS('',1,(#1244,#1245),.UNSPECIFIED.,.F.,.F.,
(2,2),(0.60024,6.60024),.UNSPECIFIED.);
#632=B_SPLINE_CURVE_WITH_KNOTS('',1,(#1254,#1255),.UNSPECIFIED.,.F.,.F.,
(2,2),(0.60024,6.60024),.UNSPECIFIED.);
#633=B_SPLINE_CURVE_WITH_KNOTS('',1,(#1261,#1262),.UNSPECIFIED.,.F.,.F.,
(2,2),(0.60024,6.60024),.UNSPECIFIED.);
#634=B_SPLINE_CURVE_WITH_KNOTS('',1,(#1273,#1274),.UNSPECIFIED.,.F.,.F.,
(2,2),(0.60024,6.60024),.UNSPECIFIED.);
#635=VERTEX_POINT('',#828);
#636=VERTEX_POINT('',#829);
#637=VERTEX_POINT('',#830);
#638=VERTEX_POINT('',#831);
#639=VERTEX_POINT('',#832);
#640=VERTEX_POINT('',#833);
#641=VERTEX_POINT('',#834);
#642=VERTEX_POINT('',#835);
#643=VERTEX_POINT('',#866);
#644=VERTEX_POINT('',#867);
#645=VERTEX_POINT('',#868);
#646=VERTEX_POINT('',#869);
#647=VERTEX_POINT('',#870);
#648=VERTEX_POINT('',#871);
#649=VERTEX_POINT('',#872);
#650=VERTEX_POINT('',#873);
#651=VERTEX_POINT('',#945);
#652=VERTEX_POINT('',#946);
#653=VERTEX_POINT('',#947);
#654=VERTEX_POINT('',#948);
#655=VERTEX_POINT('',#949);
#656=VERTEX_POINT('',#950);
#657=VERTEX_POINT('',#951);
#658=VERTEX_POINT('',#952);
#659=VERTEX_POINT('',#953);
#660=VERTEX_POINT('',#954);
#661=VERTEX_POINT('',#955);
#662=VERTEX_POINT('',#956);
#663=VERTEX_POINT('',#957);
#664=VERTEX_POINT('',#958);
#665=VERTEX_POINT('',#959);
#666=VERTEX_POINT('',#960);
#667=VERTEX_POINT('',#961);
#668=VERTEX_POINT('',#962);
#669=VERTEX_POINT('',#963);
#670=VERTEX_POINT('',#964);
#671=VERTEX_POINT('',#965);
#672=VERTEX_POINT('',#966);
#673=VERTEX_POINT('',#967);
#674=VERTEX_POINT('',#968);
#675=VERTEX_POINT('',#969);
#676=VERTEX_POINT('',#970);
#677=VERTEX_POINT('',#971);
#678=VERTEX_POINT('',#972);
#679=VERTEX_POINT('',#973);
#680=VERTEX_POINT('',#974);
#681=VERTEX_POINT('',#975);
#682=VERTEX_POINT('',#976);
#683=VERTEX_POINT('',#977);
#684=VERTEX_POINT('',#978);
#685=VERTEX_POINT('',#979);
#686=VERTEX_POINT('',#980);
#687=VERTEX_POINT('',#981);
#688=VERTEX_POINT('',#982);
#689=VERTEX_POINT('',#983);
#690=VERTEX_POINT('',#984);
#691=VERTEX_POINT('',#985);
#692=VERTEX_POINT('',#986);
#693=VERTEX_POINT('',#987);
#694=VERTEX_POINT('',#988);
#695=VERTEX_POINT('',#989);
#696=VERTEX_POINT('',#990);
#697=VERTEX_POINT('',#991);
#698=VERTEX_POINT('',#992);
#699=VERTEX_POINT('',#993);
#700=VERTEX_POINT('',#994);
#701=PLANE('',#738);
#702=PLANE('',#739);
#703=PLANE('',#740);
#704=PLANE('',#741);
#705=PLANE('',#742);
#706=PLANE('',#743);
#707=PLANE('',#744);
#708=PLANE('',#745);
#709=PLANE('',#746);
#710=PLANE('',#747);
#711=PLANE('',#748);
#712=PLANE('',#749);
#713=PLANE('',#750);
#714=PLANE('',#752);
#715=PLANE('',#754);
#716=PLANE('',#756);
#717=PLANE('',#758);
#718=SHAPE_DEFINITION_REPRESENTATION(#719,#736);
#719=PRODUCT_DEFINITION_SHAPE($,$,#721);
#720=PRODUCT_DEFINITION_CONTEXT('3D Mechanical Parts',#725,'design');
#721=PRODUCT_DEFINITION('A','First version',#722,#720);
#722=PRODUCT_DEFINITION_FORMATION_WITH_SPECIFIED_SOURCE('A',
'First version',#727,.MADE.);
#723=PRODUCT_RELATED_PRODUCT_CATEGORY('tool','tool',(#727));
#724=APPLICATION_PROTOCOL_DEFINITION('Draft International Standard',
'automotive_design',1999,#725);
#725=APPLICATION_CONTEXT(
'data for automotive mechanical design processes');
#726=PRODUCT_CONTEXT('3D Mechanical Parts',#725,'mechanical');
#727=PRODUCT('Document','Document','',(#726));
#728=(
LENGTH_UNIT()
NAMED_UNIT(*)
SI_UNIT(.MILLI.,.METRE.)
);
#729=(
NAMED_UNIT(*)
PLANE_ANGLE_UNIT()
SI_UNIT($,.RADIAN.)
);
#730=DIMENSIONAL_EXPONENTS(0.,0.,0.,0.,0.,0.,0.);
#731=PLANE_ANGLE_MEASURE_WITH_UNIT(PLANE_ANGLE_MEASURE(0.01745329252),#729);
#732=(
CONVERSION_BASED_UNIT('DEGREES',#731)
NAMED_UNIT(#730)
PLANE_ANGLE_UNIT()
);
#733=(
NAMED_UNIT(*)
SI_UNIT($,.STERADIAN.)
SOLID_ANGLE_UNIT()
);
#734=UNCERTAINTY_MEASURE_WITH_UNIT(LENGTH_MEASURE(2.E-5),#728,
'DISTANCE_ACCURACY_VALUE',
'Maximum model space distance between geometric entities at asserted c
onnectivities');
#735=(
GEOMETRIC_REPRESENTATION_CONTEXT(3)
GLOBAL_UNCERTAINTY_ASSIGNED_CONTEXT((#734))
GLOBAL_UNIT_ASSIGNED_CONTEXT((#733,#732,#728))
REPRESENTATION_CONTEXT('ID1','3D')
);
#736=SHAPE_REPRESENTATION('Document',(#737,#777),#735);
#737=AXIS2_PLACEMENT_3D($,#821,#778,#779);
#738=AXIS2_PLACEMENT_3D('',#822,#780,$);
#739=AXIS2_PLACEMENT_3D('',#823,#781,$);
#740=AXIS2_PLACEMENT_3D('',#824,#782,$);
#741=AXIS2_PLACEMENT_3D('',#825,#783,$);
#742=AXIS2_PLACEMENT_3D('',#826,#784,$);
#743=AXIS2_PLACEMENT_3D('',#827,#785,$);
#744=AXIS2_PLACEMENT_3D('',#860,#786,$);
#745=AXIS2_PLACEMENT_3D('',#861,#787,$);
#746=AXIS2_PLACEMENT_3D('',#862,#788,$);
#747=AXIS2_PLACEMENT_3D('',#863,#789,$);
#748=AXIS2_PLACEMENT_3D('',#864,#790,$);
#749=AXIS2_PLACEMENT_3D('',#865,#791,$);
#750=AXIS2_PLACEMENT_3D('',#908,#792,$);
#751=AXIS2_PLACEMENT_3D('',#909,#793,$);
#752=AXIS2_PLACEMENT_3D('',#910,#794,$);
#753=AXIS2_PLACEMENT_3D('',#911,#795,$);
#754=AXIS2_PLACEMENT_3D('',#912,#796,$);
#755=AXIS2_PLACEMENT_3D('',#913,#797,$);
#756=AXIS2_PLACEMENT_3D('',#914,#798,$);
#757=AXIS2_PLACEMENT_3D('',#915,#799,$);
#758=AXIS2_PLACEMENT_3D('',#916,#800,$);
#759=AXIS2_PLACEMENT_3D('',#917,#801,$);
#760=AXIS2_PLACEMENT_3D('',#918,#802,$);
#761=AXIS2_PLACEMENT_3D('',#919,#803,$);
#762=AXIS2_PLACEMENT_3D('',#920,#804,$);
#763=AXIS2_PLACEMENT_3D('',#921,#805,$);
#764=AXIS2_PLACEMENT_3D('',#922,#806,$);
#765=AXIS2_PLACEMENT_3D('',#923,#807,$);
#766=AXIS2_PLACEMENT_3D('',#934,#808,$);
#767=AXIS2_PLACEMENT_3D('',#935,#809,$);
#768=AXIS2_PLACEMENT_3D('',#936,#810,$);
#769=AXIS2_PLACEMENT_3D('',#937,#811,$);
#770=AXIS2_PLACEMENT_3D('',#938,#812,$);
#771=AXIS2_PLACEMENT_3D('',#939,#813,$);
#772=AXIS2_PLACEMENT_3D('',#940,#814,$);
#773=AXIS2_PLACEMENT_3D('',#941,#815,$);
#774=AXIS2_PLACEMENT_3D('',#942,#816,$);
#775=AXIS2_PLACEMENT_3D('',#943,#817,$);
#776=AXIS2_PLACEMENT_3D('',#944,#818,$);
#777=AXIS2_PLACEMENT_3D($,#1285,#819,#820);
#778=DIRECTION('',(0.,0.,1.));
#779=DIRECTION('',(1.,0.,0.));
#780=DIRECTION('',(-1.,0.,0.));
#781=DIRECTION('',(0.,1.,0.));
#782=DIRECTION('',(1.,0.,0.));
#783=DIRECTION('',(0.,-1.,0.));
#784=DIRECTION('',(0.,0.,1.));
#785=DIRECTION('',(0.,0.,-1.));
#786=DIRECTION('',(-1.,0.,0.));
#787=DIRECTION('',(0.,1.,0.));
#788=DIRECTION('',(1.,0.,0.));
#789=DIRECTION('',(0.,-1.,0.));
#790=DIRECTION('',(0.,0.,1.));
#791=DIRECTION('',(0.,0.,-1.));
#792=DIRECTION('',(0.,-1.,0.));
#793=DIRECTION('',(0.,1.,0.));
#794=DIRECTION('',(0.,1.,0.));
#795=DIRECTION('',(0.,1.,-3.22973970800046E-16));
#796=DIRECTION('',(0.,-1.,0.));
#797=DIRECTION('',(0.,1.,0.));
#798=DIRECTION('',(0.,-1.,0.));
#799=DIRECTION('',(0.,1.,0.));
#800=DIRECTION('',(0.,1.,0.));
#801=DIRECTION('',(0.,1.,0.));
#802=DIRECTION('',(0.,-1.,0.));
#803=DIRECTION('',(0.,-1.,0.));
#804=DIRECTION('',(0.,-1.,0.));
#805=DIRECTION('',(0.,-1.,0.));
#806=DIRECTION('',(0.,-1.,0.));
#807=DIRECTION('',(0.,-1.,0.));
#808=DIRECTION('',(0.,1.,0.));
#809=DIRECTION('',(5.21560929071743E-32,1.,-3.22973970800045E-16));
#810=DIRECTION('',(0.,1.,0.));
#811=DIRECTION('',(0.,1.,0.));
#812=DIRECTION('',(0.,1.,0.));
#813=DIRECTION('',(0.,-1.,0.));
#814=DIRECTION('',(0.,-1.,0.));
#815=DIRECTION('',(0.,-1.,0.));
#816=DIRECTION('',(0.,-1.,0.));
#817=DIRECTION('',(0.,-1.,0.));
#818=DIRECTION('',(0.,-1.,0.));
#819=DIRECTION('',(0.,0.,1.));
#820=DIRECTION('',(1.,0.,0.));
#821=CARTESIAN_POINT('',(0.,0.,0.));
#822=CARTESIAN_POINT('',(23.,35.,0.));
#823=CARTESIAN_POINT('',(23.,128.,0.));
#824=CARTESIAN_POINT('',(70.,128.,0.));
#825=CARTESIAN_POINT('',(70.,35.,0.));
#826=CARTESIAN_POINT('',(23.,35.,0.));
#827=CARTESIAN_POINT('',(23.,35.,-44.));
#828=CARTESIAN_POINT('',(23.,35.,0.));
#829=CARTESIAN_POINT('',(23.,128.,0.));
#830=CARTESIAN_POINT('',(23.,128.,-44.));
#831=CARTESIAN_POINT('',(23.,35.,-44.));
#832=CARTESIAN_POINT('',(70.,128.,0.));
#833=CARTESIAN_POINT('',(70.,128.,-44.));
#834=CARTESIAN_POINT('',(70.,35.,0.));
#835=CARTESIAN_POINT('',(70.,35.,-44.));
#836=CARTESIAN_POINT('',(23.,35.,0.));
#837=CARTESIAN_POINT('',(23.,128.,0.));
#838=CARTESIAN_POINT('',(23.,128.,0.));
#839=CARTESIAN_POINT('',(23.,128.,-44.));
#840=CARTESIAN_POINT('',(23.,35.,-44.));
#841=CARTESIAN_POINT('',(23.,128.,-44.));
#842=CARTESIAN_POINT('',(23.,35.,0.));
#843=CARTESIAN_POINT('',(23.,35.,-44.));
#844=CARTESIAN_POINT('',(23.,128.,0.));
#845=CARTESIAN_POINT('',(70.,128.,0.));
#846=CARTESIAN_POINT('',(70.,128.,0.));
#847=CARTESIAN_POINT('',(70.,128.,-44.));
#848=CARTESIAN_POINT('',(23.,128.,-44.));
#849=CARTESIAN_POINT('',(70.,128.,-44.));
#850=CARTESIAN_POINT('',(70.,128.,0.));
#851=CARTESIAN_POINT('',(70.,35.,0.));
#852=CARTESIAN_POINT('',(70.,35.,0.));
#853=CARTESIAN_POINT('',(70.,35.,-44.));
#854=CARTESIAN_POINT('',(70.,128.,-44.));
#855=CARTESIAN_POINT('',(70.,35.,-44.));
#856=CARTESIAN_POINT('',(70.,35.,0.));
#857=CARTESIAN_POINT('',(23.,35.,0.));
#858=CARTESIAN_POINT('',(70.,35.,-44.));
#859=CARTESIAN_POINT('',(23.,35.,-44.));
#860=CARTESIAN_POINT('',(-63.,-88.,0.));
#861=CARTESIAN_POINT('',(-63.,-15.,0.));
#862=CARTESIAN_POINT('',(-1.,-15.,0.));
#863=CARTESIAN_POINT('',(-1.,-88.,0.));
#864=CARTESIAN_POINT('',(-63.,-88.,0.));
#865=CARTESIAN_POINT('',(-63.,-88.,-54.));
#866=CARTESIAN_POINT('',(-63.,-88.,0.));
#867=CARTESIAN_POINT('',(-63.,-15.,0.));
#868=CARTESIAN_POINT('',(-63.,-15.,-54.));
#869=CARTESIAN_POINT('',(-63.,-88.,-54.));
#870=CARTESIAN_POINT('',(-1.,-15.,0.));
#871=CARTESIAN_POINT('',(-1.,-15.,-54.));
#872=CARTESIAN_POINT('',(-1.,-88.,0.));
#873=CARTESIAN_POINT('',(-1.,-88.,-54.));
#874=CARTESIAN_POINT('',(-63.,-88.,0.));
#875=CARTESIAN_POINT('',(-63.,-15.,0.));
#876=CARTESIAN_POINT('',(-63.,-15.,0.));
#877=CARTESIAN_POINT('',(-63.,-15.,-54.));
#878=CARTESIAN_POINT('',(-63.,-88.,-54.));
#879=CARTESIAN_POINT('',(-63.,-15.,-54.));
#880=CARTESIAN_POINT('',(-63.,-88.,0.));
#881=CARTESIAN_POINT('',(-63.,-88.,-54.));
#882=CARTESIAN_POINT('',(-63.,-15.,0.));
#883=CARTESIAN_POINT('',(-1.,-15.,0.));
#884=CARTESIAN_POINT('',(-1.,-15.,0.));
#885=CARTESIAN_POINT('',(-1.,-15.,-54.));
#886=CARTESIAN_POINT('',(-63.,-15.,-54.));
#887=CARTESIAN_POINT('',(-1.,-15.,-54.));
#888=CARTESIAN_POINT('',(-1.,-15.,0.));
#889=CARTESIAN_POINT('',(-1.,-88.,0.));
#890=CARTESIAN_POINT('',(-1.,-88.,0.));
#891=CARTESIAN_POINT('',(-1.,-88.,-54.));
#892=CARTESIAN_POINT('',(-1.,-15.,-54.));
#893=CARTESIAN_POINT('',(-1.,-88.,-54.));
#894=CARTESIAN_POINT('',(-1.,-88.,0.));
#895=CARTESIAN_POINT('',(-63.,-88.,0.));
#896=CARTESIAN_POINT('',(-1.,-88.,-54.));
#897=CARTESIAN_POINT('',(-63.,-88.,-54.));
#898=CARTESIAN_POINT('',(0.,-30.,0.));
#899=CARTESIAN_POINT('',(0.,4.10024,34.10024));
#900=CARTESIAN_POINT('',(0.,-30.,0.));
#901=CARTESIAN_POINT('',(34.10024,4.10024,34.10024));
#902=CARTESIAN_POINT('',(0.,-30.,0.));
#903=CARTESIAN_POINT('',(34.10024,4.10024,2.08803748830783E-15));
#904=CARTESIAN_POINT('',(0.,-30.,0.));
#905=CARTESIAN_POINT('',(34.10024,4.10024,-34.10024));
#906=CARTESIAN_POINT('',(0.,-30.,0.));
#907=CARTESIAN_POINT('',(4.17607497661565E-15,4.10024,-34.10024));
#908=CARTESIAN_POINT('',(-36.00024,0.,36.00024));
#909=CARTESIAN_POINT('',(-6.2803698347351E-16,15.5,-6.2803698347351E-16));
#910=CARTESIAN_POINT('',(-52.80024,31.,-52.80024));
#911=CARTESIAN_POINT('',(-1.18534390292631E-30,28.,1.00532055317489E-15));
#912=CARTESIAN_POINT('',(-52.80024,25.,52.80024));
#913=CARTESIAN_POINT('',(1.25607396694702E-15,17.5,-1.25607396694702E-15));
#914=CARTESIAN_POINT('',(-37.20024,10.,37.20024));
#915=CARTESIAN_POINT('',(0.,9.,0.));
#916=CARTESIAN_POINT('',(-37.20024,8.,-37.20024));
#917=CARTESIAN_POINT('',(1.25607396694702E-15,4.5,-1.25607396694702E-15));
#918=CARTESIAN_POINT('',(0.,28.,37.5));
#919=CARTESIAN_POINT('',(32.4759526419165,28.,18.75));
#920=CARTESIAN_POINT('',(32.4759526419165,28.,-18.75));
#921=CARTESIAN_POINT('',(1.75850355372583E-14,28.,-37.5));
#922=CARTESIAN_POINT('',(-32.4759526419165,28.,-18.75));
#923=CARTESIAN_POINT('',(-32.4759526419165,28.,18.75));
#924=CARTESIAN_POINT('',(0.,-30.,0.));
#925=CARTESIAN_POINT('',(0.,4.10024,-34.10024));
#926=CARTESIAN_POINT('',(0.,-30.,0.));
#927=CARTESIAN_POINT('',(-34.10024,4.10024,-34.10024));
#928=CARTESIAN_POINT('',(0.,-30.,0.));
#929=CARTESIAN_POINT('',(-34.10024,4.10024,-2.08803748830783E-15));
#930=CARTESIAN_POINT('',(0.,-30.,0.));
#931=CARTESIAN_POINT('',(-34.10024,4.10024,34.10024));
#932=CARTESIAN_POINT('',(0.,-30.,0.));
#933=CARTESIAN_POINT('',(-4.17607497661565E-15,4.10024,34.10024));
#934=CARTESIAN_POINT('',(6.2803698347351E-16,15.5,6.2803698347351E-16));
#935=CARTESIAN_POINT('',(-1.25607396694702E-15,28.,-2.50753413772133E-16));
#936=CARTESIAN_POINT('',(-1.25607396694702E-15,17.5,1.25607396694702E-15));
#937=CARTESIAN_POINT('',(0.,9.,0.));
#938=CARTESIAN_POINT('',(-1.25607396694702E-15,4.5,1.25607396694702E-15));
#939=CARTESIAN_POINT('',(0.,28.,37.5));
#940=CARTESIAN_POINT('',(32.4759526419165,28.,18.75));
#941=CARTESIAN_POINT('',(32.4759526419165,28.,-18.75));
#942=CARTESIAN_POINT('',(1.50728876033642E-14,28.,-37.5));
#943=CARTESIAN_POINT('',(-32.4759526419165,28.,-18.75));
#944=CARTESIAN_POINT('',(-32.4759526419165,28.,18.75));
#945=CARTESIAN_POINT('',(0.,0.,30.));
#946=CARTESIAN_POINT('',(0.,1.,31.));
#947=CARTESIAN_POINT('',(0.,0.,18.));
#948=CARTESIAN_POINT('',(0.,31.,18.));
#949=CARTESIAN_POINT('',(-29.4448637286709,31.,17.));
#950=CARTESIAN_POINT('',(-29.4448637286709,31.,-17.));
#951=CARTESIAN_POINT('',(1.32116539930394E-14,31.,-34.));
#952=CARTESIAN_POINT('',(29.4448637286709,31.,-17.));
#953=CARTESIAN_POINT('',(29.4448637286709,31.,17.));
#954=CARTESIAN_POINT('',(0.,31.,34.));
#955=CARTESIAN_POINT('',(0.,31.,44.));
#956=CARTESIAN_POINT('',(0.,25.,44.));
#957=CARTESIAN_POINT('',(-32.4759526419165,25.,15.25));
#958=CARTESIAN_POINT('',(-32.4759526419165,25.,-22.25));
#959=CARTESIAN_POINT('',(1.45716771982052E-14,25.,-41.));
#960=CARTESIAN_POINT('',(32.4759526419165,25.,-22.25));
#961=CARTESIAN_POINT('',(32.4759526419165,25.,15.25));
#962=CARTESIAN_POINT('',(0.,25.,34.));
#963=CARTESIAN_POINT('',(0.,25.,31.));
#964=CARTESIAN_POINT('',(0.,10.,31.));
#965=CARTESIAN_POINT('',(0.,10.,29.));
#966=CARTESIAN_POINT('',(0.,8.,29.));
#967=CARTESIAN_POINT('',(0.,8.,31.));
#968=CARTESIAN_POINT('',(29.444863728671,25.,17.));
#969=CARTESIAN_POINT('',(29.444863728671,25.,-17.));
#970=CARTESIAN_POINT('',(1.45716771982052E-14,25.,-34.));
#971=CARTESIAN_POINT('',(-29.444863728671,25.,-17.));
#972=CARTESIAN_POINT('',(-29.444863728671,25.,17.));
#973=CARTESIAN_POINT('',(0.,0.,-30.));
#974=CARTESIAN_POINT('',(0.,1.,-31.));
#975=CARTESIAN_POINT('',(0.,0.,-18.));
#976=CARTESIAN_POINT('',(0.,31.,-18.));
#977=CARTESIAN_POINT('',(0.,25.,-44.));
#978=CARTESIAN_POINT('',(0.,31.,-44.));
#979=CARTESIAN_POINT('',(0.,10.,-31.));
#980=CARTESIAN_POINT('',(0.,25.,-31.));
#981=CARTESIAN_POINT('',(0.,8.,-29.));
#982=CARTESIAN_POINT('',(0.,10.,-29.));
#983=CARTESIAN_POINT('',(0.,8.,-31.));
#984=CARTESIAN_POINT('',(0.,31.,41.));
#985=CARTESIAN_POINT('',(0.,25.,41.));
#986=CARTESIAN_POINT('',(35.507041555162,31.,20.5));
#987=CARTESIAN_POINT('',(35.507041555162,25.,20.5));
#988=CARTESIAN_POINT('',(35.507041555162,31.,-20.5));
#989=CARTESIAN_POINT('',(35.507041555162,25.,-20.5));
#990=CARTESIAN_POINT('',(1.5931700403371E-14,31.,-41.));
#991=CARTESIAN_POINT('',(-35.507041555162,31.,-20.5));
#992=CARTESIAN_POINT('',(-35.507041555162,25.,-20.5));
#993=CARTESIAN_POINT('',(-35.507041555162,31.,20.5));
#994=CARTESIAN_POINT('',(-35.507041555162,25.,20.5));
#995=CARTESIAN_POINT('',(0.,0.,30.));
#996=CARTESIAN_POINT('',(30.,0.,30.));
#997=CARTESIAN_POINT('',(30.,0.,1.83697019872103E-15));
#998=CARTESIAN_POINT('',(30.,0.,-30.));
#999=CARTESIAN_POINT('',(0.,0.,-30.));
#1000=CARTESIAN_POINT('',(0.,1.,31.));
#1001=CARTESIAN_POINT('',(-31.,1.,31.));
#1002=CARTESIAN_POINT('',(-31.,1.,-5.69460761603519E-15));
#1003=CARTESIAN_POINT('',(-31.,1.,-31.));
#1004=CARTESIAN_POINT('',(0.,1.,-31.));
#1005=CARTESIAN_POINT('',(0.,-5.32907051820075E-15,30.));
#1006=CARTESIAN_POINT('',(0.,1.,31.));
#1007=CARTESIAN_POINT('',(0.,31.,18.));
#1008=CARTESIAN_POINT('',(-18.,31.,18.));
#1009=CARTESIAN_POINT('',(-18.,31.,-3.30654635769785E-15));
#1010=CARTESIAN_POINT('',(-18.,31.,-18.));
#1011=CARTESIAN_POINT('',(0.,31.,-18.));
#1012=CARTESIAN_POINT('',(0.,0.,18.));
#1013=CARTESIAN_POINT('',(18.,0.,18.));
#1014=CARTESIAN_POINT('',(18.,0.,1.10218211923262E-15));
#1015=CARTESIAN_POINT('',(18.,0.,-18.));
#1016=CARTESIAN_POINT('',(0.,0.,-18.));
#1017=CARTESIAN_POINT('',(0.,-8.88178419700125E-16,18.));
#1018=CARTESIAN_POINT('',(0.,31.,18.));
#1019=CARTESIAN_POINT('',(0.,25.,44.));
#1020=CARTESIAN_POINT('',(44.,25.,44.));
#1021=CARTESIAN_POINT('',(44.,25.,2.69422295812418E-15));
#1022=CARTESIAN_POINT('',(44.,25.,-44.));
#1023=CARTESIAN_POINT('',(0.,25.,-44.));
#1024=CARTESIAN_POINT('',(0.,31.,44.));
#1025=CARTESIAN_POINT('',(44.,31.,44.));
#1026=CARTESIAN_POINT('',(44.,31.,2.69422295812418E-15));
#1027=CARTESIAN_POINT('',(44.,31.,-44.));
#1028=CARTESIAN_POINT('',(0.,31.,-44.));
#1029=CARTESIAN_POINT('',(0.,25.,44.));
#1030=CARTESIAN_POINT('',(0.,31.,44.));
#1031=CARTESIAN_POINT('',(0.,10.,31.));
#1032=CARTESIAN_POINT('',(31.,10.,31.));
#1033=CARTESIAN_POINT('',(31.,10.,1.8982025386784E-15));
#1034=CARTESIAN_POINT('',(31.,10.,-31.));
#1035=CARTESIAN_POINT('',(0.,10.,-31.));
#1036=CARTESIAN_POINT('',(0.,25.,31.));
#1037=CARTESIAN_POINT('',(31.,25.,31.));
#1038=CARTESIAN_POINT('',(31.,25.,1.8982025386784E-15));
#1039=CARTESIAN_POINT('',(31.,25.,-31.));
#1040=CARTESIAN_POINT('',(0.,25.,-31.));
#1041=CARTESIAN_POINT('',(0.,10.,31.));
#1042=CARTESIAN_POINT('',(0.,25.,31.));
#1043=CARTESIAN_POINT('',(0.,8.,29.));
#1044=CARTESIAN_POINT('',(29.,8.,29.));
#1045=CARTESIAN_POINT('',(29.,8.,1.77573785876366E-15));
#1046=CARTESIAN_POINT('',(29.,8.,-29.));
#1047=CARTESIAN_POINT('',(0.,8.,-29.));
#1048=CARTESIAN_POINT('',(0.,10.,29.));
#1049=CARTESIAN_POINT('',(29.,10.,29.));
#1050=CARTESIAN_POINT('',(29.,10.,1.77573785876366E-15));
#1051=CARTESIAN_POINT('',(29.,10.,-29.));
#1052=CARTESIAN_POINT('',(0.,10.,-29.));
#1053=CARTESIAN_POINT('',(0.,8.,29.));
#1054=CARTESIAN_POINT('',(0.,10.,29.));
#1055=CARTESIAN_POINT('',(0.,8.,31.));
#1056=CARTESIAN_POINT('',(31.,8.,31.));
#1057=CARTESIAN_POINT('',(31.,8.,1.8982025386784E-15));
#1058=CARTESIAN_POINT('',(31.,8.,-31.));
#1059=CARTESIAN_POINT('',(0.,8.,-31.));
#1060=CARTESIAN_POINT('',(0.,1.,31.));
#1061=CARTESIAN_POINT('',(0.,8.,31.));
#1062=CARTESIAN_POINT('',(0.,25.,34.));
#1063=CARTESIAN_POINT('',(-3.5,25.,34.));
#1064=CARTESIAN_POINT('',(-3.5,25.,37.5));
#1065=CARTESIAN_POINT('',(-3.5,25.,41.));
#1066=CARTESIAN_POINT('',(0.,25.,41.));
#1067=CARTESIAN_POINT('',(0.,31.,34.));
#1068=CARTESIAN_POINT('',(3.5,31.,34.));
#1069=CARTESIAN_POINT('',(3.5,31.,37.5));
#1070=CARTESIAN_POINT('',(3.5,31.,41.));
#1071=CARTESIAN_POINT('',(0.,31.,41.));
#1072=CARTESIAN_POINT('',(0.,31.,34.));
#1073=CARTESIAN_POINT('',(0.,25.,34.));
#1074=CARTESIAN_POINT('',(29.444863728671,25.,17.));
#1075=CARTESIAN_POINT('',(27.694863728671,25.,20.0310889132455));
#1076=CARTESIAN_POINT('',(30.7259526419165,25.,21.7810889132455));
#1077=CARTESIAN_POINT('',(33.757041555162,25.,23.5310889132455));
#1078=CARTESIAN_POINT('',(35.507041555162,25.,20.5));
#1079=CARTESIAN_POINT('',(29.4448637286709,31.,17.));
#1080=CARTESIAN_POINT('',(31.1948637286709,31.,13.9689110867545));
#1081=CARTESIAN_POINT('',(34.2259526419165,31.,15.7189110867545));
#1082=CARTESIAN_POINT('',(37.257041555162,31.,17.4689110867545));
#1083=CARTESIAN_POINT('',(35.507041555162,31.,20.5));
#1084=CARTESIAN_POINT('',(29.444863728671,31.,17.));
#1085=CARTESIAN_POINT('',(29.444863728671,25.,17.));
#1086=CARTESIAN_POINT('',(32.4759526419165,25.,15.25));
#1087=CARTESIAN_POINT('',(30.4552266997528,25.,15.25));
#1088=CARTESIAN_POINT('',(29.444863728671,25.,17.));
#1089=CARTESIAN_POINT('',(29.444863728671,25.,-17.));
#1090=CARTESIAN_POINT('',(31.194863728671,25.,-13.9689110867545));
#1091=CARTESIAN_POINT('',(34.2259526419165,25.,-15.7189110867545));
#1092=CARTESIAN_POINT('',(37.257041555162,25.,-17.4689110867545));
#1093=CARTESIAN_POINT('',(35.507041555162,25.,-20.5));
#1094=CARTESIAN_POINT('',(29.4448637286709,31.,-17.));
#1095=CARTESIAN_POINT('',(27.694863728671,31.,-20.0310889132456));
#1096=CARTESIAN_POINT('',(30.7259526419165,31.,-21.7810889132455));
#1097=CARTESIAN_POINT('',(33.757041555162,31.,-23.5310889132455));
#1098=CARTESIAN_POINT('',(35.507041555162,31.,-20.5));
#1099=CARTESIAN_POINT('',(29.444863728671,31.,-17.));
#1100=CARTESIAN_POINT('',(29.444863728671,25.,-17.));
#1101=CARTESIAN_POINT('',(32.4759526419165,25.,-22.25));
#1102=CARTESIAN_POINT('',(30.4552266997528,25.,-22.25));
#1103=CARTESIAN_POINT('',(29.444863728671,25.,-20.5));
#1104=CARTESIAN_POINT('',(28.4345007575891,25.,-18.75));
#1105=CARTESIAN_POINT('',(29.444863728671,25.,-17.));
#1106=CARTESIAN_POINT('',(1.45716771982052E-14,25.,-34.));
#1107=CARTESIAN_POINT('',(3.50000000000001,25.,-34.));
#1108=CARTESIAN_POINT('',(3.50000000000001,25.,-37.5));
#1109=CARTESIAN_POINT('',(3.50000000000001,25.,-41.));
#1110=CARTESIAN_POINT('',(1.45716771982052E-14,25.,-41.));
#1111=CARTESIAN_POINT('',(1.32116539930394E-14,31.,-34.));
#1112=CARTESIAN_POINT('',(-3.49999999999999,31.,-34.));
#1113=CARTESIAN_POINT('',(-3.49999999999999,31.,-37.5));
#1114=CARTESIAN_POINT('',(-3.49999999999998,31.,-41.));
#1115=CARTESIAN_POINT('',(1.5931700403371E-14,31.,-41.));
#1116=CARTESIAN_POINT('',(1.32116539930394E-14,31.,-34.));
#1117=CARTESIAN_POINT('',(1.32116539930394E-14,25.,-34.));
#1118=CARTESIAN_POINT('',(1.45716771982052E-14,25.,-41.));
#1119=CARTESIAN_POINT('',(-3.49999999999999,25.,-41.));
#1120=CARTESIAN_POINT('',(-3.49999999999999,25.,-37.5));
#1121=CARTESIAN_POINT('',(-3.49999999999999,25.,-34.));
#1122=CARTESIAN_POINT('',(1.45716771982052E-14,25.,-34.));
#1123=CARTESIAN_POINT('',(-29.444863728671,25.,-17.));
#1124=CARTESIAN_POINT('',(-28.4345007575891,25.,-18.75));
#1125=CARTESIAN_POINT('',(-29.444863728671,25.,-20.5));
#1126=CARTESIAN_POINT('',(-30.4552266997528,25.,-22.25));
#1127=CARTESIAN_POINT('',(-32.4759526419165,25.,-22.25));
#1128=CARTESIAN_POINT('',(-29.4448637286709,31.,-17.));
#1129=CARTESIAN_POINT('',(-31.1948637286709,31.,-13.9689110867545));
#1130=CARTESIAN_POINT('',(-34.2259526419165,31.,-15.7189110867545));
#1131=CARTESIAN_POINT('',(-37.257041555162,31.,-17.4689110867545));
#1132=CARTESIAN_POINT('',(-35.507041555162,31.,-20.5));
#1133=CARTESIAN_POINT('',(-29.444863728671,31.,-17.));
#1134=CARTESIAN_POINT('',(-29.444863728671,25.,-17.));
#1135=CARTESIAN_POINT('',(-32.4759526419165,25.,-22.25));
#1136=CARTESIAN_POINT('',(-34.4966785840802,25.,-22.25));
#1137=CARTESIAN_POINT('',(-35.507041555162,25.,-20.5));
#1138=CARTESIAN_POINT('',(-29.444863728671,25.,17.));
#1139=CARTESIAN_POINT('',(-30.4552266997528,25.,15.25));
#1140=CARTESIAN_POINT('',(-32.4759526419165,25.,15.25));
#1141=CARTESIAN_POINT('',(-29.4448637286709,31.,17.));
#1142=CARTESIAN_POINT('',(-27.694863728671,31.,20.0310889132456));
#1143=CARTESIAN_POINT('',(-30.7259526419165,31.,21.7810889132455));
#1144=CARTESIAN_POINT('',(-33.757041555162,31.,23.5310889132455));
#1145=CARTESIAN_POINT('',(-35.507041555162,31.,20.5));
#1146=CARTESIAN_POINT('',(-29.444863728671,31.,17.));
#1147=CARTESIAN_POINT('',(-29.444863728671,25.,17.));
#1148=CARTESIAN_POINT('',(-32.4759526419165,25.,15.25));
#1149=CARTESIAN_POINT('',(-34.4966785840802,25.,15.25));
#1150=CARTESIAN_POINT('',(-35.507041555162,25.,17.));
#1151=CARTESIAN_POINT('',(-36.5174045262439,25.,18.75));
#1152=CARTESIAN_POINT('',(-35.507041555162,25.,20.5));
#1153=CARTESIAN_POINT('',(0.,8.88178419700125E-16,-30.));
#1154=CARTESIAN_POINT('',(0.,0.999999999999999,-31.));
#1155=CARTESIAN_POINT('',(0.,0.,-30.));
#1156=CARTESIAN_POINT('',(-30.,0.,-30.));
#1157=CARTESIAN_POINT('',(-30.,0.,-5.51091059616309E-15));
#1158=CARTESIAN_POINT('',(-30.,0.,30.));
#1159=CARTESIAN_POINT('',(0.,0.,30.));
#1160=CARTESIAN_POINT('',(0.,1.,-31.));
#1161=CARTESIAN_POINT('',(31.,1.,-31.));
#1162=CARTESIAN_POINT('',(31.,1.,1.8982025386784E-15));
#1163=CARTESIAN_POINT('',(31.,1.,31.));
#1164=CARTESIAN_POINT('',(0.,1.,31.));
#1165=CARTESIAN_POINT('',(0.,-4.44089209850063E-16,-18.));
#1166=CARTESIAN_POINT('',(0.,31.,-18.));
#1167=CARTESIAN_POINT('',(0.,31.,-18.));
#1168=CARTESIAN_POINT('',(18.,31.,-18.));
#1169=CARTESIAN_POINT('',(18.,31.,1.10218211923262E-15));
#1170=CARTESIAN_POINT('',(18.,31.,18.));
#1171=CARTESIAN_POINT('',(0.,31.,18.));
#1172=CARTESIAN_POINT('',(0.,0.,-18.));
#1173=CARTESIAN_POINT('',(-18.,0.,-18.));
#1174=CARTESIAN_POINT('',(-18.,0.,-3.30654635769785E-15));
#1175=CARTESIAN_POINT('',(-18.,0.,18.));
#1176=CARTESIAN_POINT('',(0.,0.,18.));
#1177=CARTESIAN_POINT('',(0.,25.,-44.));
#1178=CARTESIAN_POINT('',(0.,31.,-44.));
#1179=CARTESIAN_POINT('',(0.,25.,-44.));
#1180=CARTESIAN_POINT('',(-44.,25.,-44.));
#1181=CARTESIAN_POINT('',(-44.,25.,-8.08266887437253E-15));
#1182=CARTESIAN_POINT('',(-44.,25.,44.));
#1183=CARTESIAN_POINT('',(0.,25.,44.));
#1184=CARTESIAN_POINT('',(0.,31.,-44.));
#1185=CARTESIAN_POINT('',(-44.,31.,-44.));
#1186=CARTESIAN_POINT('',(-44.,31.,-8.08266887437253E-15));
#1187=CARTESIAN_POINT('',(-44.,31.,44.));
#1188=CARTESIAN_POINT('',(0.,31.,44.));
#1189=CARTESIAN_POINT('',(0.,10.,-31.));
#1190=CARTESIAN_POINT('',(0.,25.,-31.));
#1191=CARTESIAN_POINT('',(0.,10.,-31.));
#1192=CARTESIAN_POINT('',(-31.,10.,-31.));
#1193=CARTESIAN_POINT('',(-31.,10.,-5.69460761603519E-15));
#1194=CARTESIAN_POINT('',(-31.,10.,31.));
#1195=CARTESIAN_POINT('',(0.,10.,31.));
#1196=CARTESIAN_POINT('',(0.,25.,-31.));
#1197=CARTESIAN_POINT('',(-31.,25.,-31.));
#1198=CARTESIAN_POINT('',(-31.,25.,-5.69460761603519E-15));
#1199=CARTESIAN_POINT('',(-31.,25.,31.));
#1200=CARTESIAN_POINT('',(0.,25.,31.));
#1201=CARTESIAN_POINT('',(0.,8.,-29.));
#1202=CARTESIAN_POINT('',(0.,10.,-29.));
#1203=CARTESIAN_POINT('',(0.,8.,-29.));
#1204=CARTESIAN_POINT('',(-29.,8.,-29.));
#1205=CARTESIAN_POINT('',(-29.,8.,-5.32721357629099E-15));
#1206=CARTESIAN_POINT('',(-29.,8.,29.));
#1207=CARTESIAN_POINT('',(0.,8.,29.));
#1208=CARTESIAN_POINT('',(0.,10.,-29.));
#1209=CARTESIAN_POINT('',(-29.,10.,-29.));
#1210=CARTESIAN_POINT('',(-29.,10.,-5.32721357629099E-15));
#1211=CARTESIAN_POINT('',(-29.,10.,29.));
#1212=CARTESIAN_POINT('',(0.,10.,29.));
#1213=CARTESIAN_POINT('',(0.,1.,-31.));
#1214=CARTESIAN_POINT('',(0.,8.,-31.));
#1215=CARTESIAN_POINT('',(0.,8.,-31.));
#1216=CARTESIAN_POINT('',(-31.,8.,-31.));
#1217=CARTESIAN_POINT('',(-31.,8.,-5.69460761603519E-15));
#1218=CARTESIAN_POINT('',(-31.,8.,31.));
#1219=CARTESIAN_POINT('',(0.,8.,31.));
#1220=CARTESIAN_POINT('',(0.,31.,41.));
#1221=CARTESIAN_POINT('',(0.,25.,41.));
#1222=CARTESIAN_POINT('',(0.,25.,41.));
#1223=CARTESIAN_POINT('',(3.5,25.,41.));
#1224=CARTESIAN_POINT('',(3.5,25.,37.5));
#1225=CARTESIAN_POINT('',(3.5,25.,34.));
#1226=CARTESIAN_POINT('',(0.,25.,34.));
#1227=CARTESIAN_POINT('',(0.,31.,41.));
#1228=CARTESIAN_POINT('',(-3.5,31.,41.));
#1229=CARTESIAN_POINT('',(-3.5,31.,37.5));
#1230=CARTESIAN_POINT('',(-3.5,31.,34.));
#1231=CARTESIAN_POINT('',(0.,31.,34.));
#1232=CARTESIAN_POINT('',(35.507041555162,31.,20.5));
#1233=CARTESIAN_POINT('',(35.507041555162,25.,20.5));
#1234=CARTESIAN_POINT('',(35.507041555162,25.,20.5));
#1235=CARTESIAN_POINT('',(36.5174045262439,25.,18.75));
#1236=CARTESIAN_POINT('',(35.507041555162,25.,17.));
#1237=CARTESIAN_POINT('',(34.4966785840802,25.,15.25));
#1238=CARTESIAN_POINT('',(32.4759526419165,25.,15.25));
#1239=CARTESIAN_POINT('',(35.507041555162,31.,20.5));
#1240=CARTESIAN_POINT('',(33.757041555162,31.,23.5310889132455));
#1241=CARTESIAN_POINT('',(30.7259526419165,31.,21.7810889132455));
#1242=CARTESIAN_POINT('',(27.694863728671,31.,20.0310889132456));
#1243=CARTESIAN_POINT('',(29.4448637286709,31.,17.));
#1244=CARTESIAN_POINT('',(35.507041555162,31.,-20.5));
#1245=CARTESIAN_POINT('',(35.507041555162,25.,-20.5));
#1246=CARTESIAN_POINT('',(35.507041555162,25.,-20.5));
#1247=CARTESIAN_POINT('',(34.4966785840802,25.,-22.25));
#1248=CARTESIAN_POINT('',(32.4759526419165,25.,-22.25));
#1249=CARTESIAN_POINT('',(35.507041555162,31.,-20.5));
#1250=CARTESIAN_POINT('',(37.257041555162,31.,-17.4689110867545));
#1251=CARTESIAN_POINT('',(34.2259526419165,31.,-15.7189110867545));
#1252=CARTESIAN_POINT('',(31.1948637286709,31.,-13.9689110867545));
#1253=CARTESIAN_POINT('',(29.4448637286709,31.,-17.));
#1254=CARTESIAN_POINT('',(1.5931700403371E-14,31.,-41.));
#1255=CARTESIAN_POINT('',(1.5931700403371E-14,25.,-41.));
#1256=CARTESIAN_POINT('',(1.5931700403371E-14,31.,-41.));
#1257=CARTESIAN_POINT('',(3.50000000000001,31.,-41.));
#1258=CARTESIAN_POINT('',(3.50000000000001,31.,-37.5));
#1259=CARTESIAN_POINT('',(3.50000000000001,31.,-34.));
#1260=CARTESIAN_POINT('',(1.32116539930394E-14,31.,-34.));
#1261=CARTESIAN_POINT('',(-35.507041555162,31.,-20.5));
#1262=CARTESIAN_POINT('',(-35.507041555162,25.,-20.5));
#1263=CARTESIAN_POINT('',(-35.507041555162,31.,-20.5));
#1264=CARTESIAN_POINT('',(-33.757041555162,31.,-23.5310889132455));
#1265=CARTESIAN_POINT('',(-30.7259526419165,31.,-21.7810889132455));
#1266=CARTESIAN_POINT('',(-27.694863728671,31.,-20.0310889132456));
#1267=CARTESIAN_POINT('',(-29.4448637286709,31.,-17.));
#1268=CARTESIAN_POINT('',(-35.507041555162,25.,-20.5));
#1269=CARTESIAN_POINT('',(-37.257041555162,25.,-17.4689110867545));
#1270=CARTESIAN_POINT('',(-34.2259526419165,25.,-15.7189110867545));
#1271=CARTESIAN_POINT('',(-31.194863728671,25.,-13.9689110867545));
#1272=CARTESIAN_POINT('',(-29.444863728671,25.,-17.));
#1273=CARTESIAN_POINT('',(-35.507041555162,31.,20.5));
#1274=CARTESIAN_POINT('',(-35.507041555162,25.,20.5));
#1275=CARTESIAN_POINT('',(-35.507041555162,31.,20.5));
#1276=CARTESIAN_POINT('',(-37.257041555162,31.,17.4689110867545));
#1277=CARTESIAN_POINT('',(-34.2259526419165,31.,15.7189110867545));
#1278=CARTESIAN_POINT('',(-31.1948637286709,31.,13.9689110867545));
#1279=CARTESIAN_POINT('',(-29.4448637286709,31.,17.));
#1280=CARTESIAN_POINT('',(-35.507041555162,25.,20.5));
#1281=CARTESIAN_POINT('',(-33.757041555162,25.,23.5310889132455));
#1282=CARTESIAN_POINT('',(-30.7259526419165,25.,21.7810889132455));
#1283=CARTESIAN_POINT('',(-27.694863728671,25.,20.0310889132455));
#1284=CARTESIAN_POINT('',(-29.444863728671,25.,17.));
#1285=CARTESIAN_POINT('',(0.,0.,0.));
ENDSEC;
END-ISO-10303-21;
