                                                                        S      1
1H,,1H;,,                                                               G      1
60HC:\CAD\Repos\mx_testing\models\IGESfile\blocks-flattened.igs,        G      2
26HRhinoceros ( Sep 15 2026 ),31HTrout Lake IGES 012 Sep 15 2026,       G      3
32,38,6,308,15,                                                         G      4
,                                                                       G      5
1.0D0,2,2HMM,1,0.254D0,13H260915.202056,                                G      6
0.001D0,                                                                G      7
14D0,                                                                   G      8
,                                                                       G      9
,                                                                       G     10
10,0,13H260915.202056;                                                  G     11
     314       1       0       0       0       0       0       000000200D      1
     314       0       1       1       0       0       0   COLOR       0D      2
     406       2       0       0       1       0       0       000000300D      3
     406       0      -1       1       3       0       0LEVELDEF       0D      4
     128       3       0       0       1       0       0       000000000D      5
     128       0      -1      15       0       0       0   Shell       1D      6
     128      18       0       0       1       0       0       000010000D      7
     128       0      -1       4       8       0       0   Shell       0D      8
     126      22       0       0       1       0       0       000010000D      9
     126       0      -1      10       2       0       0   Shell       1D     10
     126      32       0       0       1       0       0       000010500D     11
     126       0      -1      10       2       0       0   Shell       1D     12
     141      42       0       0       1       0       0       000010000D     13
     141       0      -1       1       0       0       0   Shell       1D     14
     143      43       0       0       1       0       0       000000000D     15
     143       0      -1       1       0       0       0   Shell       2D     16
     128      44       0       0       1       0       0       000010000D     17
     128       0      -1       4       8       0       0   Shell       0D     18
     126      48       0       0       1       0       0       000010000D     19
     126       0      -1      10       2       0       0   Shell       1D     20
     126      58       0       0       1       0       0       000010500D     21
     126       0      -1      10       2       0       0   Shell       1D     22
     141      68       0       0       1       0       0       000010000D     23
     141       0      -1       1       0       0       0   Shell       1D     24
     143      69       0       0       1       0       0       000000000D     25
     143       0      -1       1       0       0       0   Shell       3D     26
     128      70       0       0       1       0       0       000000000D     27
     128       0      -1      17       0       0       0   Shell       1D     28
     128      87       0       0       1       0       0       000010000D     29
     128       0      -1       4       8       0       0   Shell       0D     30
     126      91       0       0       1       0       0       000010000D     31
     126       0      -1      11       2       0       0   Shell       1D     32
     126     102       0       0       1       0       0       000010500D     33
     126       0      -1      10       2       0       0   Shell       1D     34
     141     112       0       0       1       0       0       000010000D     35
     141       0      -1       1       0       0       0   Shell       1D     36
     143     113       0       0       1       0       0       000000000D     37
     143       0      -1       1       0       0       0   Shell       2D     38
     128     114       0       0       1       0       0       000010000D     39
     128       0      -1       4       8       0       0   Shell       0D     40
     126     118       0       0       1       0       0       000010000D     41
     126       0      -1      11       2       0       0   Shell       1D     42
     126     129       0       0       1       0       0       000010500D     43
     126       0      -1      10       2       0       0   Shell       1D     44
     141     139       0       0       1       0       0       000010000D     45
     141       0      -1       1       0       0       0   Shell       1D     46
     143     140       0       0       1       0       0       000000000D     47
     143       0      -1       1       0       0       0   Shell       3D     48
314,0.0,0.0,0.0,20HRGB(   0,   0,   0 );                         0000001P      1
406,2,1,7HDefault;                                               0000003P      2
128,8,1,2,1,1,0,0,0,0,0.0D0,0.0D0,0.0D0,3.141592653589793D0,     0000005P      3
3.141592653589793D0,6.283185307179586D0,6.283185307179586D0,     0000005P      4
9.424777960769379D0,9.424777960769379D0,12.56637061435917D0,     0000005P      5
12.56637061435917D0,12.56637061435917D0,0.0D0,0.0D0,6.0D0,6.0D0, 0000005P      6
1.0D0,0.7071067811865476D0,1.0D0,0.7071067811865476D0,1.0D0,     0000005P      7
0.7071067811865476D0,1.0D0,0.7071067811865476D0,1.0D0,1.0D0,     0000005P      8
0.7071067811865476D0,1.0D0,0.7071067811865476D0,1.0D0,           0000005P      9
0.7071067811865476D0,1.0D0,0.7071067811865476D0,1.0D0,14.0D0,    0000005P     10
0.0D0,0.0D0,14.0D0,2.0D0,0.0D0,12.0D0,2.0D0,0.0D0,10.0D0,2.0D0,  0000005P     11
0.0D0,10.0D0,2.449293598294706D-16,0.0D0,10.0D0,-2.0D0,0.0D0,    0000005P     12
12.0D0,-2.0D0,0.0D0,14.0D0,-2.0D0,0.0D0,14.0D0,0.0D0,0.0D0,      0000005P     13
14.0D0,0.0D0,6.0D0,14.0D0,2.0D0,6.0D0,12.0D0,2.0D0,6.0D0,10.0D0, 0000005P     14
2.0D0,6.0D0,10.0D0,2.449293598294706D-16,6.0D0,10.0D0,-2.0D0,    0000005P     15
6.0D0,12.0D0,-2.0D0,6.0D0,14.0D0,-2.0D0,6.0D0,14.0D0,0.0D0,      0000005P     16
6.0D0,0.0D0,12.56637061435917D0,0.0D0,6.0D0;                     0000005P     17
128,1,1,1,1,0,0,1,0,0,-2.0D0,-2.0D0,2.0D0,2.0D0,-2.0D0,-2.0D0,   0000007P     18
2.0D0,2.0D0,1.0D0,1.0D0,1.0D0,1.0D0,10.0D0,2.0D0,0.0D0,14.0D0,   0000007P     19
2.0D0,0.0D0,10.0D0,-2.0D0,0.0D0,14.0D0,-2.0D0,0.0D0,-2.0D0,      0000007P     20
2.0D0,-2.0D0,2.0D0;                                              0000007P     21
126,8,2,1,1,0,0,-12.56637061435917D0,-12.56637061435917D0,       0000009P     22
-12.56637061435917D0,-9.424777960769379D0,-9.424777960769379D0,  0000009P     23
-6.283185307179586D0,-6.283185307179586D0,-3.141592653589793D0,  0000009P     24
-3.141592653589793D0,-0.0D0,-0.0D0,-0.0D0,1.0D0,                 0000009P     25
0.7071067811865476D0,1.0D0,0.7071067811865476D0,1.0D0,           0000009P     26
0.7071067811865476D0,1.0D0,0.7071067811865476D0,1.0D0,14.0D0,    0000009P     27
0.0D0,0.0D0,14.0D0,-2.0D0,0.0D0,12.0D0,-2.0D0,0.0D0,10.0D0,      0000009P     28
-2.0D0,0.0D0,10.0D0,2.449293598294706D-16,0.0D0,10.0D0,2.0D0,    0000009P     29
0.0D0,12.0D0,2.0D0,0.0D0,14.0D0,2.0D0,0.0D0,14.0D0,0.0D0,0.0D0,  0000009P     30
-12.56637061435917D0,-0.0D0,0.0D0,0.0D0,1.0D0;                   0000009P     31
126,8,2,1,1,0,0,0.0D0,0.0D0,0.0D0,1.570796326794897D0,           0000011P     32
1.570796326794897D0,3.141592653589793D0,3.141592653589793D0,     0000011P     33
4.71238898038469D0,4.71238898038469D0,6.283185307179586D0,       0000011P     34
6.283185307179586D0,6.283185307179586D0,1.0D0,                   0000011P     35
0.7071067811865475D0,1.0D0,0.7071067811865475D0,1.0D0,           0000011P     36
0.7071067811865475D0,1.0D0,0.7071067811865475D0,1.0D0,2.0D0,     0000011P     37
0.0D0,0.0D0,2.0D0,2.0D0,0.0D0,0.0D0,2.0D0,0.0D0,-2.0D0,2.0D0,    0000011P     38
0.0D0,-2.0D0,0.0D0,0.0D0,-2.0D0,-2.0D0,0.0D0,0.0D0,-2.0D0,0.0D0, 0000011P     39
2.0D0,-2.0D0,0.0D0,2.0D0,0.0D0,0.0D0,0.0D0,6.283185307179586D0,  0000011P     40
0.0D0,0.0D0,1.0D0;                                               0000011P     41
141,1,3,7,1,9,1,1,11;                                            0000013P     42
143,1,7,1,13;                                                    0000015P     43
128,1,1,1,1,0,0,1,0,0,-2.0D0,-2.0D0,2.0D0,2.0D0,-2.0D0,-2.0D0,   0000017P     44
2.0D0,2.0D0,1.0D0,1.0D0,1.0D0,1.0D0,10.0D0,-2.0D0,6.0D0,14.0D0,  0000017P     45
-2.0D0,6.0D0,10.0D0,2.0D0,6.0D0,14.0D0,2.0D0,6.0D0,-2.0D0,2.0D0, 0000017P     46
-2.0D0,2.0D0;                                                    0000017P     47
126,8,2,1,1,0,0,-0.0D0,-0.0D0,-0.0D0,3.141592653589793D0,        0000019P     48
3.141592653589793D0,6.283185307179586D0,6.283185307179586D0,     0000019P     49
9.424777960769379D0,9.424777960769379D0,12.56637061435917D0,     0000019P     50
12.56637061435917D0,12.56637061435917D0,1.0D0,                   0000019P     51
0.7071067811865476D0,1.0D0,0.7071067811865476D0,1.0D0,           0000019P     52
0.7071067811865476D0,1.0D0,0.7071067811865476D0,1.0D0,14.0D0,    0000019P     53
0.0D0,6.0D0,14.0D0,2.0D0,6.0D0,12.0D0,2.0D0,6.0D0,10.0D0,2.0D0,  0000019P     54
6.0D0,10.0D0,2.449293598294706D-16,6.0D0,10.0D0,-2.0D0,6.0D0,    0000019P     55
12.0D0,-2.0D0,6.0D0,14.0D0,-2.0D0,6.0D0,14.0D0,0.0D0,6.0D0,      0000019P     56
-0.0D0,12.56637061435917D0,-0.0D0,-0.0D0,-1.0D0;                 0000019P     57
126,8,2,1,1,0,0,0.0D0,0.0D0,0.0D0,1.570796326794897D0,           0000021P     58
1.570796326794897D0,3.141592653589793D0,3.141592653589793D0,     0000021P     59
4.71238898038469D0,4.71238898038469D0,6.283185307179586D0,       0000021P     60
6.283185307179586D0,6.283185307179586D0,1.0D0,                   0000021P     61
0.7071067811865475D0,1.0D0,0.7071067811865475D0,1.0D0,           0000021P     62
0.7071067811865475D0,1.0D0,0.7071067811865475D0,1.0D0,2.0D0,     0000021P     63
0.0D0,0.0D0,2.0D0,2.0D0,0.0D0,0.0D0,2.0D0,0.0D0,-2.0D0,2.0D0,    0000021P     64
0.0D0,-2.0D0,0.0D0,0.0D0,-2.0D0,-2.0D0,0.0D0,0.0D0,-2.0D0,0.0D0, 0000021P     65
2.0D0,-2.0D0,0.0D0,2.0D0,0.0D0,0.0D0,0.0D0,6.283185307179586D0,  0000021P     66
0.0D0,0.0D0,1.0D0;                                               0000021P     67
141,1,3,17,1,19,1,1,21;                                          0000023P     68
143,1,17,1,23;                                                   0000025P     69
128,8,1,2,1,1,0,0,0,0,0.0D0,0.0D0,0.0D0,3.141592653589793D0,     0000027P     70
3.141592653589793D0,6.283185307179586D0,6.283185307179586D0,     0000027P     71
9.424777960769379D0,9.424777960769379D0,12.56637061435917D0,     0000027P     72
12.56637061435917D0,12.56637061435917D0,0.0D0,0.0D0,6.0D0,6.0D0, 0000027P     73
1.0D0,0.7071067811865476D0,1.0D0,0.7071067811865476D0,1.0D0,     0000027P     74
0.7071067811865476D0,1.0D0,0.7071067811865476D0,1.0D0,1.0D0,     0000027P     75
0.7071067811865476D0,1.0D0,0.7071067811865476D0,1.0D0,           0000027P     76
0.7071067811865476D0,1.0D0,0.7071067811865476D0,1.0D0,2.0D0,     0000027P     77
0.0D0,0.0D0,2.0D0,2.0D0,0.0D0,1.224646799147353D-16,2.0D0,0.0D0, 0000027P     78
-2.0D0,2.0D0,0.0D0,-2.0D0,2.449293598294706D-16,0.0D0,-2.0D0,    0000027P     79
-2.0D0,0.0D0,-3.673940397442059D-16,-2.0D0,0.0D0,                0000027P     80
1.999999999999999D0,-2.0D0,0.0D0,2.0D0,0.0D0,0.0D0,2.0D0,0.0D0,  0000027P     81
6.0D0,2.0D0,2.0D0,6.0D0,1.224646799147353D-16,2.0D0,6.0D0,       0000027P     82
-2.0D0,2.0D0,6.0D0,-2.0D0,2.449293598294706D-16,6.0D0,-2.0D0,    0000027P     83
-2.0D0,6.0D0,-3.673940397442059D-16,-2.0D0,6.0D0,                0000027P     84
1.999999999999999D0,-2.0D0,6.0D0,2.0D0,0.0D0,6.0D0,0.0D0,        0000027P     85
12.56637061435917D0,0.0D0,6.0D0;                                 0000027P     86
128,1,1,1,1,0,0,1,0,0,-2.0D0,-2.0D0,2.0D0,2.0D0,-2.0D0,-2.0D0,   0000029P     87
2.0D0,2.0D0,1.0D0,1.0D0,1.0D0,1.0D0,-2.0D0,2.0D0,0.0D0,2.0D0,    0000029P     88
2.0D0,0.0D0,-2.0D0,-2.0D0,0.0D0,2.0D0,-2.0D0,0.0D0,-2.0D0,2.0D0, 0000029P     89
-2.0D0,2.0D0;                                                    0000029P     90
126,8,2,1,1,0,0,-12.56637061435917D0,-12.56637061435917D0,       0000031P     91
-12.56637061435917D0,-9.424777960769379D0,-9.424777960769379D0,  0000031P     92
-6.283185307179586D0,-6.283185307179586D0,-3.141592653589793D0,  0000031P     93
-3.141592653589793D0,-0.0D0,-0.0D0,-0.0D0,1.0D0,                 0000031P     94
0.7071067811865476D0,1.0D0,0.7071067811865476D0,1.0D0,           0000031P     95
0.7071067811865476D0,1.0D0,0.7071067811865476D0,1.0D0,2.0D0,     0000031P     96
0.0D0,0.0D0,1.999999999999999D0,-2.0D0,0.0D0,                    0000031P     97
-3.673940397442059D-16,-2.0D0,0.0D0,-2.0D0,-2.0D0,0.0D0,-2.0D0,  0000031P     98
2.449293598294706D-16,0.0D0,-2.0D0,2.0D0,0.0D0,                  0000031P     99
1.224646799147353D-16,2.0D0,0.0D0,2.0D0,2.0D0,0.0D0,2.0D0,0.0D0, 0000031P    100
0.0D0,-12.56637061435917D0,-0.0D0,0.0D0,0.0D0,1.0D0;             0000031P    101
126,8,2,1,1,0,0,0.0D0,0.0D0,0.0D0,1.570796326794897D0,           0000033P    102
1.570796326794897D0,3.141592653589793D0,3.141592653589793D0,     0000033P    103
4.71238898038469D0,4.71238898038469D0,6.283185307179586D0,       0000033P    104
6.283185307179586D0,6.283185307179586D0,1.0D0,                   0000033P    105
0.7071067811865475D0,1.0D0,0.7071067811865475D0,1.0D0,           0000033P    106
0.7071067811865475D0,1.0D0,0.7071067811865475D0,1.0D0,2.0D0,     0000033P    107
0.0D0,0.0D0,2.0D0,2.0D0,0.0D0,0.0D0,2.0D0,0.0D0,-2.0D0,2.0D0,    0000033P    108
0.0D0,-2.0D0,0.0D0,0.0D0,-2.0D0,-2.0D0,0.0D0,0.0D0,-2.0D0,0.0D0, 0000033P    109
2.0D0,-2.0D0,0.0D0,2.0D0,0.0D0,0.0D0,0.0D0,6.283185307179586D0,  0000033P    110
0.0D0,0.0D0,1.0D0;                                               0000033P    111
141,1,3,29,1,31,1,1,33;                                          0000035P    112
143,1,29,1,35;                                                   0000037P    113
128,1,1,1,1,0,0,1,0,0,-2.0D0,-2.0D0,2.0D0,2.0D0,-2.0D0,-2.0D0,   0000039P    114
2.0D0,2.0D0,1.0D0,1.0D0,1.0D0,1.0D0,-2.0D0,-2.0D0,6.0D0,2.0D0,   0000039P    115
-2.0D0,6.0D0,-2.0D0,2.0D0,6.0D0,2.0D0,2.0D0,6.0D0,-2.0D0,2.0D0,  0000039P    116
-2.0D0,2.0D0;                                                    0000039P    117
126,8,2,1,1,0,0,-0.0D0,-0.0D0,-0.0D0,3.141592653589793D0,        0000041P    118
3.141592653589793D0,6.283185307179586D0,6.283185307179586D0,     0000041P    119
9.424777960769379D0,9.424777960769379D0,12.56637061435917D0,     0000041P    120
12.56637061435917D0,12.56637061435917D0,1.0D0,                   0000041P    121
0.7071067811865476D0,1.0D0,0.7071067811865476D0,1.0D0,           0000041P    122
0.7071067811865476D0,1.0D0,0.7071067811865476D0,1.0D0,2.0D0,     0000041P    123
0.0D0,6.0D0,2.0D0,2.0D0,6.0D0,1.224646799147353D-16,2.0D0,6.0D0, 0000041P    124
-2.0D0,2.0D0,6.0D0,-2.0D0,2.449293598294706D-16,6.0D0,-2.0D0,    0000041P    125
-2.0D0,6.0D0,-3.673940397442059D-16,-2.0D0,6.0D0,                0000041P    126
1.999999999999999D0,-2.0D0,6.0D0,2.0D0,0.0D0,6.0D0,-0.0D0,       0000041P    127
12.56637061435917D0,-0.0D0,-0.0D0,-1.0D0;                        0000041P    128
126,8,2,1,1,0,0,0.0D0,0.0D0,0.0D0,1.570796326794897D0,           0000043P    129
1.570796326794897D0,3.141592653589793D0,3.141592653589793D0,     0000043P    130
4.71238898038469D0,4.71238898038469D0,6.283185307179586D0,       0000043P    131
6.283185307179586D0,6.283185307179586D0,1.0D0,                   0000043P    132
0.7071067811865475D0,1.0D0,0.7071067811865475D0,1.0D0,           0000043P    133
0.7071067811865475D0,1.0D0,0.7071067811865475D0,1.0D0,2.0D0,     0000043P    134
0.0D0,0.0D0,2.0D0,2.0D0,0.0D0,0.0D0,2.0D0,0.0D0,-2.0D0,2.0D0,    0000043P    135
0.0D0,-2.0D0,0.0D0,0.0D0,-2.0D0,-2.0D0,0.0D0,0.0D0,-2.0D0,0.0D0, 0000043P    136
2.0D0,-2.0D0,0.0D0,2.0D0,0.0D0,0.0D0,0.0D0,6.283185307179586D0,  0000043P    137
0.0D0,0.0D0,1.0D0;                                               0000043P    138
141,1,3,39,1,41,1,1,43;                                          0000045P    139
143,1,39,1,45;                                                   0000047P    140
S0000001G0000011D0000048P0000140                                        T      1
