                                                                        S      1
1H,,1H;,,                                                               G      1
57HC:\CAD\Repos\mx_testing\models\IGESfile\curves-points.igs,           G      2
26HRhinoceros ( Sep 15 2026 ),31HTrout Lake IGES 012 Sep 15 2026,       G      3
32,38,6,308,15,                                                         G      4
,                                                                       G      5
1.0D0,2,2HMM,1,0.254D0,13H260915.202056,                                G      6
0.001D0,                                                                G      7
30D0,                                                                   G      8
,                                                                       G      9
,                                                                       G     10
10,0,13H260915.202056;                                                  G     11
     314       1       0       0       0       0       0       000000200D      1
     314       0       1       1       0       0       0   COLOR       0D      2
     406       2       0       0       1       0       0       000000300D      3
     406       0      -1       1       3       0       0LEVELDEF       0D      4
     116       3       0       0       1       0       0       000000000D      5
     116       0      -1       1       0       0       03d Point       0D      6
     116       4       0       0       1       0       0       000000000D      7
     116       0      -1       1       0       0       03d Point       0D      8
     126       5       0       0       1       0       0       000000000D      9
     126       0      -1       4       0       0       03d BsCrv       0D     10
     126       9       0       0       1       0       0       000000000D     11
     126       0      -1       7       2       0       03d BsCrv       0D     12
     126      16       0       0       1       0       0       000000000D     13
     126       0      -1       2       1       0       03d BsCrv       0D     14
314,0.0,0.0,0.0,20HRGB(   0,   0,   0 );                         0000001P      1
406,2,1,7HDefault;                                               0000003P      2
116,25.0D0,5.0D0,0.0D0,0;                                        0000005P      3
116,25.0D0,0.0D0,0.0D0,0;                                        0000007P      4
126,3,3,0,0,1,0,0.0D0,0.0D0,0.0D0,0.0D0,1.0D0,1.0D0,1.0D0,1.0D0, 0000009P      5
1.0D0,1.0D0,1.0D0,1.0D0,0.0D0,25.0D0,0.0D0,6.0D0,30.0D0,4.0D0,   0000009P      6
14.0D0,22.0D0,-3.0D0,20.0D0,28.0D0,0.0D0,0.0D0,1.0D0,0.0D0,      0000009P      7
0.0D0,0.0D0;                                                     0000009P      8
126,4,2,1,0,0,0,0.0D0,0.0D0,0.0D0,13.83218931558283D0,           0000011P      9
13.83218931558283D0,27.66437863116566D0,27.66437863116566D0,     0000011P     10
27.66437863116566D0,1.0D0,0.7808688094430304D0,1.0D0,            0000011P     11
0.7808688094430304D0,1.0D0,0.0D0,10.0D0,0.0D0,                   0000011P     12
1.800000000000002D0,18.0D0,0.0D0,10.0D0,18.0D0,0.0D0,18.2D0,     0000011P     13
18.0D0,0.0D0,20.0D0,10.0D0,0.0D0,0.0D0,27.66437863116566D0,      0000011P     14
-0.0D0,-0.0D0,-1.0D0;                                            0000011P     15
126,1,1,1,0,1,0,0.0D0,0.0D0,20.0D0,20.0D0,1.0D0,1.0D0,0.0D0,     0000013P     16
0.0D0,0.0D0,20.0D0,0.0D0,0.0D0,0.0D0,20.0D0,0.0D0,0.0D0,1.0D0;   0000013P     17
S0000001G0000011D0000014P0000017                                        T      1
