                                                                        S      1
1H,,1H;,,                                                               G      1
59HC:\CAD\Repos\mx_testing\models\IGESfile\cylinder-capped.igs,         G      2
26HRhinoceros ( Sep 15 2026 ),31HTrout Lake IGES 012 Sep 15 2026,       G      3
32,38,6,308,15,                                                         G      4
,                                                                       G      5
1.0D0,2,2HMM,1,0.254D0,13H260915.202056,                                G      6
0.001D0,                                                                G      7
15D0,                                                                   G      8
,                                                                       G      9
,                                                                       G     10
10,0,13H260915.202056;                                                  G     11
     314       1       0       0       0       0       0       000000200D      1
     314       0       1       1       0       0       0   COLOR       0D      2
     406       2       0       0       1       0       0       000000300D      3
     406       0      -1       1       3       0       0LEVELDEF       0D      4
     128       3       0       0       1       0       0       000000000D      5
     128       0      -1      18       0       0       0   Shell       1D      6
     128      21       0       0       1       0       0       000010000D      7
     128       0      -1       4       8       0       0   Shell       0D      8
     126      25       0       0       1       0       0       000010000D      9
     126       0      -1      11       2       0       0   Shell       1D     10
     126      36       0       0       1       0       0       000010500D     11
     126       0      -1      10       2       0       0   Shell       1D     12
     141      46       0       0       1       0       0       000010000D     13
     141       0      -1       1       0       0       0   Shell       1D     14
     143      47       0       0       1       0       0       000000000D     15
     143       0      -1       1       0       0       0   Shell       2D     16
     128      48       0       0       1       0       0       000010000D     17
     128       0      -1       4       8       0       0   Shell       0D     18
     126      52       0       0       1       0       0       000010000D     19
     126       0      -1      12       2       0       0   Shell       1D     20
     126      64       0       0       1       0       0       000010500D     21
     126       0      -1      10       2       0       0   Shell       1D     22
     141      74       0       0       1       0       0       000010000D     23
     141       0      -1       1       0       0       0   Shell       1D     24
     143      75       0       0       1       0       0       000000000D     25
     143       0      -1       1       0       0       0   Shell       3D     26
314,0.0,0.0,0.0,20HRGB(   0,   0,   0 );                         0000001P      1
406,2,1,7HDefault;                                               0000003P      2
128,8,1,2,1,1,0,0,0,0,0.0D0,0.0D0,0.0D0,9.424777960769379D0,     0000005P      3
9.424777960769379D0,18.84955592153876D0,18.84955592153876D0,     0000005P      4
28.27433388230814D0,28.27433388230814D0,37.69911184307752D0,     0000005P      5
37.69911184307752D0,37.69911184307752D0,0.0D0,0.0D0,15.0D0,      0000005P      6
15.0D0,1.0D0,0.7071067811865476D0,1.0D0,0.7071067811865476D0,    0000005P      7
1.0D0,0.7071067811865476D0,1.0D0,0.7071067811865476D0,1.0D0,     0000005P      8
1.0D0,0.7071067811865476D0,1.0D0,0.7071067811865476D0,1.0D0,     0000005P      9
0.7071067811865476D0,1.0D0,0.7071067811865476D0,1.0D0,6.0D0,     0000005P     10
0.0D0,0.0D0,6.0D0,6.0D0,0.0D0,3.673940397442059D-16,6.0D0,0.0D0, 0000005P     11
-5.999999999999997D0,6.0D0,0.0D0,-6.0D0,7.347880794884119D-16,   0000005P     12
0.0D0,-6.0D0,-5.999999999999997D0,0.0D0,-1.102182119232618D-15,  0000005P     13
-6.0D0,0.0D0,5.999999999999997D0,-6.0D0,0.0D0,6.0D0,0.0D0,0.0D0, 0000005P     14
6.0D0,0.0D0,15.0D0,6.0D0,6.0D0,15.0D0,3.673940397442059D-16,     0000005P     15
6.0D0,15.0D0,-5.999999999999997D0,6.0D0,15.0D0,-6.0D0,           0000005P     16
7.347880794884119D-16,15.0D0,-6.0D0,-5.999999999999997D0,15.0D0, 0000005P     17
-1.102182119232618D-15,-6.0D0,15.0D0,5.999999999999997D0,-6.0D0, 0000005P     18
15.0D0,6.0D0,0.0D0,15.0D0,0.0D0,37.69911184307752D0,0.0D0,       0000005P     19
15.0D0;                                                          0000005P     20
128,1,1,1,1,0,0,1,0,0,-6.0D0,-6.0D0,6.0D0,6.0D0,-6.0D0,-6.0D0,   0000007P     21
6.0D0,6.0D0,1.0D0,1.0D0,1.0D0,1.0D0,-6.0D0,6.0D0,0.0D0,6.0D0,    0000007P     22
6.0D0,0.0D0,-6.0D0,-6.0D0,0.0D0,6.0D0,-6.0D0,0.0D0,-6.0D0,6.0D0, 0000007P     23
-6.0D0,6.0D0;                                                    0000007P     24
126,8,2,1,1,0,0,-37.69911184307752D0,-37.69911184307752D0,       0000009P     25
-37.69911184307752D0,-28.27433388230814D0,-28.27433388230814D0,  0000009P     26
-18.84955592153876D0,-18.84955592153876D0,-9.424777960769379D0,  0000009P     27
-9.424777960769379D0,-0.0D0,-0.0D0,-0.0D0,1.0D0,                 0000009P     28
0.7071067811865476D0,1.0D0,0.7071067811865476D0,1.0D0,           0000009P     29
0.7071067811865476D0,1.0D0,0.7071067811865476D0,1.0D0,6.0D0,     0000009P     30
0.0D0,0.0D0,5.999999999999997D0,-6.0D0,0.0D0,                    0000009P     31
-1.102182119232618D-15,-6.0D0,0.0D0,-6.0D0,-5.999999999999999D0, 0000009P     32
0.0D0,-6.0D0,7.347880794884119D-16,0.0D0,-5.999999999999999D0,   0000009P     33
6.0D0,0.0D0,3.673940397442059D-16,6.0D0,0.0D0,6.0D0,6.0D0,0.0D0, 0000009P     34
6.0D0,0.0D0,0.0D0,-37.69911184307752D0,-0.0D0,0.0D0,0.0D0,1.0D0; 0000009P     35
126,8,2,1,1,0,0,0.0D0,0.0D0,0.0D0,1.570796326794897D0,           0000011P     36
1.570796326794897D0,3.141592653589793D0,3.141592653589793D0,     0000011P     37
4.71238898038469D0,4.71238898038469D0,6.283185307179586D0,       0000011P     38
6.283185307179586D0,6.283185307179586D0,1.0D0,                   0000011P     39
0.7071067811865475D0,1.0D0,0.7071067811865475D0,1.0D0,           0000011P     40
0.7071067811865475D0,1.0D0,0.7071067811865475D0,1.0D0,6.0D0,     0000011P     41
0.0D0,0.0D0,6.0D0,6.0D0,0.0D0,0.0D0,6.0D0,0.0D0,-6.0D0,6.0D0,    0000011P     42
0.0D0,-6.0D0,0.0D0,0.0D0,-6.0D0,-6.0D0,0.0D0,0.0D0,-6.0D0,0.0D0, 0000011P     43
6.0D0,-6.0D0,0.0D0,6.0D0,0.0D0,0.0D0,0.0D0,6.283185307179586D0,  0000011P     44
0.0D0,0.0D0,1.0D0;                                               0000011P     45
141,1,3,7,1,9,1,1,11;                                            0000013P     46
143,1,7,1,13;                                                    0000015P     47
128,1,1,1,1,0,0,1,0,0,-6.0D0,-6.0D0,6.0D0,6.0D0,-6.0D0,-6.0D0,   0000017P     48
6.0D0,6.0D0,1.0D0,1.0D0,1.0D0,1.0D0,-6.0D0,-6.0D0,15.0D0,6.0D0,  0000017P     49
-6.0D0,15.0D0,-6.0D0,6.0D0,15.0D0,6.0D0,6.0D0,15.0D0,-6.0D0,     0000017P     50
6.0D0,-6.0D0,6.0D0;                                              0000017P     51
126,8,2,1,1,0,0,-0.0D0,-0.0D0,-0.0D0,9.424777960769379D0,        0000019P     52
9.424777960769379D0,18.84955592153876D0,18.84955592153876D0,     0000019P     53
28.27433388230814D0,28.27433388230814D0,37.69911184307752D0,     0000019P     54
37.69911184307752D0,37.69911184307752D0,1.0D0,                   0000019P     55
0.7071067811865476D0,1.0D0,0.7071067811865476D0,1.0D0,           0000019P     56
0.7071067811865476D0,1.0D0,0.7071067811865476D0,1.0D0,6.0D0,     0000019P     57
0.0D0,15.0D0,6.0D0,6.0D0,15.0D0,3.673940397442059D-16,6.0D0,     0000019P     58
15.0D0,-5.999999999999999D0,6.0D0,15.0D0,-6.0D0,                 0000019P     59
7.347880794884119D-16,15.0D0,-6.0D0,-5.999999999999999D0,15.0D0, 0000019P     60
-1.102182119232618D-15,-6.0D0,15.0D0,5.999999999999997D0,-6.0D0, 0000019P     61
15.0D0,6.0D0,0.0D0,15.0D0,-0.0D0,37.69911184307752D0,-0.0D0,     0000019P     62
-0.0D0,-1.0D0;                                                   0000019P     63
126,8,2,1,1,0,0,0.0D0,0.0D0,0.0D0,1.570796326794897D0,           0000021P     64
1.570796326794897D0,3.141592653589793D0,3.141592653589793D0,     0000021P     65
4.71238898038469D0,4.71238898038469D0,6.283185307179586D0,       0000021P     66
6.283185307179586D0,6.283185307179586D0,1.0D0,                   0000021P     67
0.7071067811865475D0,1.0D0,0.7071067811865475D0,1.0D0,           0000021P     68
0.7071067811865475D0,1.0D0,0.7071067811865475D0,1.0D0,6.0D0,     0000021P     69
0.0D0,0.0D0,6.0D0,6.0D0,0.0D0,0.0D0,6.0D0,0.0D0,-6.0D0,6.0D0,    0000021P     70
0.0D0,-6.0D0,0.0D0,0.0D0,-6.0D0,-6.0D0,0.0D0,0.0D0,-6.0D0,0.0D0, 0000021P     71
6.0D0,-6.0D0,0.0D0,6.0D0,0.0D0,0.0D0,0.0D0,6.283185307179586D0,  0000021P     72
0.0D0,0.0D0,1.0D0;                                               0000021P     73
141,1,3,17,1,19,1,1,21;                                          0000023P     74
143,1,17,1,23;                                                   0000025P     75
S0000001G0000011D0000026P0000075                                        T      1
