                                                                        S      1
1H,,1H;,,                                                               G      1
53HC:\CAD\Repos\mx_testing\models\IGESfile\solid-box.igs,               G      2
26HRhinoceros ( Sep 15 2026 ),31HTrout Lake IGES 012 Sep 15 2026,       G      3
32,38,6,308,15,                                                         G      4
,                                                                       G      5
1.0D0,2,2HMM,1,0.254D0,13H260915.202056,                                G      6
0.001D0,                                                                G      7
20D0,                                                                   G      8
,                                                                       G      9
,                                                                       G     10
10,0,13H260915.202056;                                                  G     11
     314       1       0       0       0       0       0       000000200D      1
     314       0       1       1       0       0       0   COLOR       0D      2
     406       2       0       0       1       0       0       000000300D      3
     406       0      -1       1       3       0       0LEVELDEF       0D      4
     128       3       0       0       1       0       0       000000000D      5
     128       0      -1       4       8       0       0   Shell       1D      6
     128       7       0       0       1       0       0       000000000D      7
     128       0      -1       4       8       0       0   Shell       2D      8
     128      11       0       0       1       0       0       000000000D      9
     128       0      -1       4       8       0       0   Shell       3D     10
     128      15       0       0       1       0       0       000000000D     11
     128       0      -1       4       8       0       0   Shell       4D     12
     128      19       0       0       1       0       0       000000000D     13
     128       0      -1       4       8       0       0   Shell       5D     14
     128      23       0       0       1       0       0       000000000D     15
     128       0      -1       4       8       0       0   Shell       6D     16
314,0.0,0.0,0.0,20HRGB(   0,   0,   0 );                         0000001P      1
406,2,1,7HDefault;                                               0000003P      2
128,1,1,1,1,0,0,1,0,0,0.0D0,0.0D0,20.0D0,20.0D0,0.0D0,0.0D0,     0000005P      3
5.0D0,5.0D0,1.0D0,1.0D0,1.0D0,1.0D0,0.0D0,0.0D0,0.0D0,20.0D0,    0000005P      4
0.0D0,0.0D0,0.0D0,0.0D0,5.0D0,20.0D0,0.0D0,5.0D0,0.0D0,20.0D0,   0000005P      5
0.0D0,5.0D0;                                                     0000005P      6
128,1,1,1,1,0,0,1,0,0,0.0D0,0.0D0,10.0D0,10.0D0,0.0D0,0.0D0,     0000007P      7
5.0D0,5.0D0,1.0D0,1.0D0,1.0D0,1.0D0,20.0D0,0.0D0,0.0D0,20.0D0,   0000007P      8
10.0D0,0.0D0,20.0D0,0.0D0,5.0D0,20.0D0,10.0D0,5.0D0,0.0D0,       0000007P      9
10.0D0,0.0D0,5.0D0;                                              0000007P     10
128,1,1,1,1,0,0,1,0,0,0.0D0,0.0D0,20.0D0,20.0D0,0.0D0,0.0D0,     0000009P     11
5.0D0,5.0D0,1.0D0,1.0D0,1.0D0,1.0D0,20.0D0,10.0D0,0.0D0,0.0D0,   0000009P     12
10.0D0,0.0D0,20.0D0,10.0D0,5.0D0,0.0D0,10.0D0,5.0D0,0.0D0,       0000009P     13
20.0D0,0.0D0,5.0D0;                                              0000009P     14
128,1,1,1,1,0,0,1,0,0,0.0D0,0.0D0,10.0D0,10.0D0,0.0D0,0.0D0,     0000011P     15
5.0D0,5.0D0,1.0D0,1.0D0,1.0D0,1.0D0,0.0D0,10.0D0,0.0D0,0.0D0,    0000011P     16
0.0D0,0.0D0,0.0D0,10.0D0,5.0D0,0.0D0,0.0D0,5.0D0,0.0D0,10.0D0,   0000011P     17
0.0D0,5.0D0;                                                     0000011P     18
128,1,1,1,1,0,0,1,0,0,0.0D0,0.0D0,10.0D0,10.0D0,0.0D0,0.0D0,     0000013P     19
20.0D0,20.0D0,1.0D0,1.0D0,1.0D0,1.0D0,0.0D0,0.0D0,0.0D0,0.0D0,   0000013P     20
10.0D0,0.0D0,20.0D0,0.0D0,0.0D0,20.0D0,10.0D0,0.0D0,0.0D0,       0000013P     21
10.0D0,0.0D0,20.0D0;                                             0000013P     22
128,1,1,1,1,0,0,1,0,0,0.0D0,0.0D0,20.0D0,20.0D0,0.0D0,0.0D0,     0000015P     23
10.0D0,10.0D0,1.0D0,1.0D0,1.0D0,1.0D0,0.0D0,0.0D0,5.0D0,20.0D0,  0000015P     24
0.0D0,5.0D0,0.0D0,10.0D0,5.0D0,20.0D0,10.0D0,5.0D0,0.0D0,20.0D0, 0000015P     25
0.0D0,10.0D0;                                                    0000015P     26
S0000001G0000011D0000016P0000026                                        T      1
