                                                                        S      1
1H,,1H;,,                                                               G      1
65HC:\CAD\Repos\mx_testing\models\IGESfile\surfaces-open-trimmed.igs,   G      2
26HRhinoceros ( Sep 15 2026 ),31HTrout Lake IGES 012 Sep 15 2026,       G      3
32,38,6,308,15,                                                         G      4
,                                                                       G      5
1.0D0,2,2HMM,1,0.254D0,13H260915.202056,                                G      6
0.001D0,                                                                G      7
46.12D0,                                                                G      8
,                                                                       G      9
,                                                                       G     10
10,0,13H260915.202056;                                                  G     11
     314       1       0       0       0       0       0       000000200D      1
     314       0       1       1       0       0       0   COLOR       0D      2
     406       2       0       0       1       0       0       000000300D      3
     406       0      -1       1       3       0       0LEVELDEF       0D      4
     128       3       0       0       1       0       0       000010000D      5
     128       0      -1       4       8       0       0 TrimSrf       0D      6
     126       7       0       0       1       0       0       000010000D      7
     126       0      -1      10       2       0       0 TrimSrf       1D      8
     126      17       0       0       1       0       0       000010500D      9
     126       0      -1      10       2       0       0 TrimSrf       1D     10
     141      27       0       0       1       0       0       000010000D     11
     141       0      -1       1       0       0       0 TrimSrf       1D     12
     143      28       0       0       1       0       0       000000000D     13
     143       0      -1       1       0       0       0 TrimSrf       0D     14
     128      29       0       0       1       0       0       000000000D     15
     128       0      -1       4       8       0       0 TrimSrf       0D     16
314,0.0,0.0,0.0,20HRGB(   0,   0,   0 );                         0000001P      1
406,2,1,7HDefault;                                               0000003P      2
128,1,1,1,1,0,0,1,0,0,-12.12D0,-12.12D0,0.12D0,0.12D0,-6.12D0,   0000005P      3
-6.12D0,6.12D0,6.12D0,1.0D0,1.0D0,1.0D0,1.0D0,33.88D0,1.88D0,    0000005P      4
0.0D0,46.12D0,1.88D0,0.0D0,33.88D0,14.12D0,0.0D0,46.12D0,        0000005P      5
14.12D0,0.0D0,-12.12D0,0.12D0,-6.12D0,6.12D0;                    0000005P      6
126,8,2,1,1,0,0,0.0D0,0.0D0,0.0D0,1.570796326794897D0,           0000007P      7
1.570796326794897D0,3.141592653589793D0,3.141592653589793D0,     0000007P      8
4.71238898038469D0,4.71238898038469D0,6.283185307179586D0,       0000007P      9
6.283185307179586D0,6.283185307179586D0,1.0D0,                   0000007P     10
0.7071067811865475D0,1.0D0,0.7071067811865475D0,1.0D0,           0000007P     11
0.7071067811865475D0,1.0D0,0.7071067811865475D0,1.0D0,46.0D0,    0000007P     12
8.0D0,0.0D0,46.0D0,14.0D0,0.0D0,40.0D0,14.0D0,0.0D0,34.0D0,      0000007P     13
14.0D0,0.0D0,34.0D0,8.0D0,0.0D0,34.0D0,2.0D0,0.0D0,40.0D0,2.0D0, 0000007P     14
0.0D0,46.0D0,2.0D0,0.0D0,46.0D0,8.0D0,0.0D0,0.0D0,               0000007P     15
6.283185307179586D0,0.0D0,0.0D0,1.0D0;                           0000007P     16
126,8,2,1,1,0,0,0.0D0,0.0D0,0.0D0,1.570796326794897D0,           0000009P     17
1.570796326794897D0,3.141592653589793D0,3.141592653589793D0,     0000009P     18
4.71238898038469D0,4.71238898038469D0,6.283185307179586D0,       0000009P     19
6.283185307179586D0,6.283185307179586D0,1.0D0,                   0000009P     20
0.7071067811865475D0,1.0D0,0.7071067811865475D0,1.0D0,           0000009P     21
0.7071067811865475D0,1.0D0,0.7071067811865475D0,1.0D0,0.0D0,     0000009P     22
0.0D0,0.0D0,0.0D0,5.999999999999998D0,0.0D0,-6.0D0,6.0D0,0.0D0,  0000009P     23
-12.0D0,5.999999999999998D0,0.0D0,-12.0D0,0.0D0,0.0D0,-12.0D0,   0000009P     24
-6.0D0,0.0D0,-6.0D0,-6.0D0,0.0D0,0.0D0,-6.0D0,0.0D0,0.0D0,0.0D0, 0000009P     25
0.0D0,0.0D0,6.283185307179586D0,0.0D0,0.0D0,1.0D0;               0000009P     26
141,1,3,5,1,7,1,1,9;                                             0000011P     27
143,1,5,1,11;                                                    0000013P     28
128,1,1,1,1,0,0,1,0,0,0.0D0,0.0D0,20.0D0,20.0D0,0.0D0,0.0D0,     0000015P     29
17.0D0,17.0D0,1.0D0,1.0D0,1.0D0,1.0D0,0.0D0,0.0D0,0.0D0,20.0D0,  0000015P     30
0.0D0,0.0D0,0.0D0,15.0D0,8.0D0,20.0D0,15.0D0,8.0D0,0.0D0,20.0D0, 0000015P     31
0.0D0,17.0D0;                                                    0000015P     32
S0000001G0000011D0000016P0000032                                        T      1
