{
 "asset": {
  "version": "2.0"
 },
 "scene": 0,
 "scenes": [
  {
   "nodes": [
    0
   ]
  }
 ],
 "nodes": [
  {
   "mesh": 0
  }
 ],
 "meshes": [
  {
   "primitives": [
    {
     "attributes": {
      "POSITION": 0
     }
    }
   ]
  }
 ],
 "buffers": [
  {
   "byteLength": 36,
   "uri": "data:application/octet-stream;base64,"
  }
 ],
 "bufferViews": [
  {
   "buffer": 0,
   "byteOffset": 0,
   "byteLength": 36,
   "target": 34962
  }
 ],
 "accessors": [
  {
   "bufferView": 0,
   "byteOffset": 0,
   "componentType": 5126,
   "count": 3,
   "type": "VEC3",
   "max": [
    10,
    10,
    0
   ],
   "min": [
    0,
    0,
    0
   ]
  }
 ]
}